<?xml version="1.0" encoding="utf-8" standalone="no"?>
<!DOCTYPE svg PUBLIC "-//W3C//DTD SVG 1.1//EN"
  "http://www.w3.org/Graphics/SVG/1.1/DTD/svg11.dtd">
<svg xmlns:xlink="http://www.w3.org/1999/xlink" width="309.102913pt" height="462.364475pt" viewBox="0 0 309.102913 462.364475" xmlns="http://www.w3.org/2000/svg" version="1.1">
 <metadata>
  <rdf:RDF xmlns:dc="http://purl.org/dc/elements/1.1/" xmlns:cc="http://creativecommons.org/ns#" xmlns:rdf="http://www.w3.org/1999/02/22-rdf-syntax-ns#">
   <cc:Work>
    <dc:type rdf:resource="http://purl.org/dc/dcmitype/StillImage"/>
    <dc:date>2025-09-17T12:31:27.683632</dc:date>
    <dc:format>image/svg+xml</dc:format>
    <dc:creator>
     <cc:Agent>
      <dc:title>Matplotlib v3.10.6, https://matplotlib.org/</dc:title>
     </cc:Agent>
    </dc:creator>
   </cc:Work>
  </rdf:RDF>
 </metadata>
 <defs>
  <style type="text/css">*{stroke-linejoin: round; stroke-linecap: butt}</style>
 </defs>
 <g id="figure_1">
  <g id="patch_1">
   <path d="M 0 462.364475 
L 309.102913 462.364475 
L 309.102913 0 
L 0 0 
z
" style="fill: #ffffff"/>
  </g>
  <g id="axes_1">
   <g id="patch_2">
    <path d="M 41.265312 98.428745 
L 301.902913 98.428745 
L 301.902913 20.798437 
L 41.265312 20.798437 
z
" style="fill: #ffffff"/>
   </g>
   <g id="matplotlib.axis_1">
    <g id="xtick_1">
     <g id="line2d_1">
      <path d="M 56.606225 98.428745 
L 56.606225 20.798437 
" clip-path="url(#p7094658f5e)" style="fill: none; stroke-dasharray: 2.96,1.28; stroke-dashoffset: 0; stroke: #cccccc; stroke-opacity: 0.3; stroke-width: 0.8"/>
     </g>
    </g>
    <g id="xtick_2">
     <g id="line2d_2">
      <path d="M 89.45705 98.428745 
L 89.45705 20.798437 
" clip-path="url(#p7094658f5e)" style="fill: none; stroke-dasharray: 2.96,1.28; stroke-dashoffset: 0; stroke: #cccccc; stroke-opacity: 0.3; stroke-width: 0.8"/>
     </g>
    </g>
    <g id="xtick_3">
     <g id="line2d_3">
      <path d="M 122.307875 98.428745 
L 122.307875 20.798437 
" clip-path="url(#p7094658f5e)" style="fill: none; stroke-dasharray: 2.96,1.28; stroke-dashoffset: 0; stroke: #cccccc; stroke-opacity: 0.3; stroke-width: 0.8"/>
     </g>
    </g>
    <g id="xtick_4">
     <g id="line2d_4">
      <path d="M 155.1587 98.428745 
L 155.1587 20.798437 
" clip-path="url(#p7094658f5e)" style="fill: none; stroke-dasharray: 2.96,1.28; stroke-dashoffset: 0; stroke: #cccccc; stroke-opacity: 0.3; stroke-width: 0.8"/>
     </g>
    </g>
    <g id="xtick_5">
     <g id="line2d_5">
      <path d="M 188.009525 98.428745 
L 188.009525 20.798437 
" clip-path="url(#p7094658f5e)" style="fill: none; stroke-dasharray: 2.96,1.28; stroke-dashoffset: 0; stroke: #cccccc; stroke-opacity: 0.3; stroke-width: 0.8"/>
     </g>
    </g>
    <g id="xtick_6">
     <g id="line2d_6">
      <path d="M 220.86035 98.428745 
L 220.86035 20.798437 
" clip-path="url(#p7094658f5e)" style="fill: none; stroke-dasharray: 2.96,1.28; stroke-dashoffset: 0; stroke: #cccccc; stroke-opacity: 0.3; stroke-width: 0.8"/>
     </g>
    </g>
    <g id="xtick_7">
     <g id="line2d_7">
      <path d="M 253.711175 98.428745 
L 253.711175 20.798437 
" clip-path="url(#p7094658f5e)" style="fill: none; stroke-dasharray: 2.96,1.28; stroke-dashoffset: 0; stroke: #cccccc; stroke-opacity: 0.3; stroke-width: 0.8"/>
     </g>
    </g>
    <g id="xtick_8">
     <g id="line2d_8">
      <path d="M 286.562 98.428745 
L 286.562 20.798437 
" clip-path="url(#p7094658f5e)" style="fill: none; stroke-dasharray: 2.96,1.28; stroke-dashoffset: 0; stroke: #cccccc; stroke-opacity: 0.3; stroke-width: 0.8"/>
     </g>
    </g>
   </g>
   <g id="matplotlib.axis_2">
    <g id="ytick_1">
     <g id="line2d_9">
      <path d="M 41.265312 98.428745 
L 301.902913 98.428745 
" clip-path="url(#p7094658f5e)" style="fill: none; stroke: #cccccc; stroke-width: 0.8; stroke-linecap: round"/>
     </g>
     <g id="text_1">
      <!-- 0.000 -->
      <g style="fill: #262626" transform="translate(7.2 101.848042) scale(0.09 -0.09)">
       <defs>
        <path id="DejaVuSans-30" d="M 2034 4250 
Q 1547 4250 1301 3770 
Q 1056 3291 1056 2328 
Q 1056 1369 1301 889 
Q 1547 409 2034 409 
Q 2525 409 2770 889 
Q 3016 1369 3016 2328 
Q 3016 3291 2770 3770 
Q 2525 4250 2034 4250 
z
M 2034 4750 
Q 2819 4750 3233 4129 
Q 3647 3509 3647 2328 
Q 3647 1150 3233 529 
Q 2819 -91 2034 -91 
Q 1250 -91 836 529 
Q 422 1150 422 2328 
Q 422 3509 836 4129 
Q 1250 4750 2034 4750 
z
" transform="scale(0.015625)"/>
        <path id="DejaVuSans-2e" d="M 684 794 
L 1344 794 
L 1344 0 
L 684 0 
L 684 794 
z
" transform="scale(0.015625)"/>
       </defs>
       <use xlink:href="#DejaVuSans-30"/>
       <use xlink:href="#DejaVuSans-2e" transform="translate(63.623047 0)"/>
       <use xlink:href="#DejaVuSans-30" transform="translate(95.410156 0)"/>
       <use xlink:href="#DejaVuSans-30" transform="translate(159.033203 0)"/>
       <use xlink:href="#DejaVuSans-30" transform="translate(222.65625 0)"/>
      </g>
     </g>
    </g>
    <g id="ytick_2">
     <g id="line2d_10">
      <path d="M 41.265312 74.233373 
L 301.902913 74.233373 
" clip-path="url(#p7094658f5e)" style="fill: none; stroke: #cccccc; stroke-width: 0.8; stroke-linecap: round"/>
     </g>
     <g id="text_2">
      <!-- 0.005 -->
      <g style="fill: #262626" transform="translate(7.2 77.65267) scale(0.09 -0.09)">
       <defs>
        <path id="DejaVuSans-35" d="M 691 4666 
L 3169 4666 
L 3169 4134 
L 1269 4134 
L 1269 2991 
Q 1406 3038 1543 3061 
Q 1681 3084 1819 3084 
Q 2600 3084 3056 2656 
Q 3513 2228 3513 1497 
Q 3513 744 3044 326 
Q 2575 -91 1722 -91 
Q 1428 -91 1123 -41 
Q 819 9 494 109 
L 494 744 
Q 775 591 1075 516 
Q 1375 441 1709 441 
Q 2250 441 2565 725 
Q 2881 1009 2881 1497 
Q 2881 1984 2565 2268 
Q 2250 2553 1709 2553 
Q 1456 2553 1204 2497 
Q 953 2441 691 2322 
L 691 4666 
z
" transform="scale(0.015625)"/>
       </defs>
       <use xlink:href="#DejaVuSans-30"/>
       <use xlink:href="#DejaVuSans-2e" transform="translate(63.623047 0)"/>
       <use xlink:href="#DejaVuSans-30" transform="translate(95.410156 0)"/>
       <use xlink:href="#DejaVuSans-30" transform="translate(159.033203 0)"/>
       <use xlink:href="#DejaVuSans-35" transform="translate(222.65625 0)"/>
      </g>
     </g>
    </g>
    <g id="ytick_3">
     <g id="line2d_11">
      <path d="M 41.265312 50.038002 
L 301.902913 50.038002 
" clip-path="url(#p7094658f5e)" style="fill: none; stroke: #cccccc; stroke-width: 0.8; stroke-linecap: round"/>
     </g>
     <g id="text_3">
      <!-- 0.010 -->
      <g style="fill: #262626" transform="translate(7.2 53.457299) scale(0.09 -0.09)">
       <defs>
        <path id="DejaVuSans-31" d="M 794 531 
L 1825 531 
L 1825 4091 
L 703 3866 
L 703 4441 
L 1819 4666 
L 2450 4666 
L 2450 531 
L 3481 531 
L 3481 0 
L 794 0 
L 794 531 
z
" transform="scale(0.015625)"/>
       </defs>
       <use xlink:href="#DejaVuSans-30"/>
       <use xlink:href="#DejaVuSans-2e" transform="translate(63.623047 0)"/>
       <use xlink:href="#DejaVuSans-30" transform="translate(95.410156 0)"/>
       <use xlink:href="#DejaVuSans-31" transform="translate(159.033203 0)"/>
       <use xlink:href="#DejaVuSans-30" transform="translate(222.65625 0)"/>
      </g>
     </g>
    </g>
    <g id="ytick_4">
     <g id="line2d_12">
      <path d="M 41.265312 25.84263 
L 301.902913 25.84263 
" clip-path="url(#p7094658f5e)" style="fill: none; stroke: #cccccc; stroke-width: 0.8; stroke-linecap: round"/>
     </g>
     <g id="text_4">
      <!-- 0.015 -->
      <g style="fill: #262626" transform="translate(7.2 29.261927) scale(0.09 -0.09)">
       <use xlink:href="#DejaVuSans-30"/>
       <use xlink:href="#DejaVuSans-2e" transform="translate(63.623047 0)"/>
       <use xlink:href="#DejaVuSans-30" transform="translate(95.410156 0)"/>
       <use xlink:href="#DejaVuSans-31" transform="translate(159.033203 0)"/>
       <use xlink:href="#DejaVuSans-35" transform="translate(222.65625 0)"/>
      </g>
     </g>
    </g>
   </g>
   <g id="FillBetweenPolyCollection_1">
    <defs>
     <path id="m182a3eaa32" d="M 60.728022 -364.002815 
L 60.728022 -363.93573 
L 61.792629 -363.93573 
L 62.857237 -363.93573 
L 63.921845 -363.93573 
L 64.986452 -363.93573 
L 66.05106 -363.93573 
L 67.115668 -363.93573 
L 68.180276 -363.93573 
L 69.244883 -363.93573 
L 70.309491 -363.93573 
L 71.374099 -363.93573 
L 72.438706 -363.93573 
L 73.503314 -363.93573 
L 74.567922 -363.93573 
L 75.63253 -363.93573 
L 76.697137 -363.93573 
L 77.761745 -363.93573 
L 78.826353 -363.93573 
L 79.89096 -363.93573 
L 80.955568 -363.93573 
L 82.020176 -363.93573 
L 83.084784 -363.93573 
L 84.149391 -363.93573 
L 85.213999 -363.93573 
L 86.278607 -363.93573 
L 87.343214 -363.93573 
L 88.407822 -363.93573 
L 89.47243 -363.93573 
L 90.537037 -363.93573 
L 91.601645 -363.93573 
L 92.666253 -363.93573 
L 93.730861 -363.93573 
L 94.795468 -363.93573 
L 95.860076 -363.93573 
L 96.924684 -363.93573 
L 97.989291 -363.93573 
L 99.053899 -363.93573 
L 100.118507 -363.93573 
L 101.183115 -363.93573 
L 102.247722 -363.93573 
L 103.31233 -363.93573 
L 104.376938 -363.93573 
L 105.441545 -363.93573 
L 106.506153 -363.93573 
L 107.570761 -363.93573 
L 108.635369 -363.93573 
L 109.699976 -363.93573 
L 110.764584 -363.93573 
L 111.829192 -363.93573 
L 112.893799 -363.93573 
L 113.958407 -363.93573 
L 115.023015 -363.93573 
L 116.087623 -363.93573 
L 117.15223 -363.93573 
L 118.216838 -363.93573 
L 119.281446 -363.93573 
L 120.346053 -363.93573 
L 121.410661 -363.93573 
L 122.475269 -363.93573 
L 123.539876 -363.93573 
L 124.604484 -363.93573 
L 125.669092 -363.93573 
L 126.7337 -363.93573 
L 127.798307 -363.93573 
L 128.862915 -363.93573 
L 129.927523 -363.93573 
L 130.99213 -363.93573 
L 132.056738 -363.93573 
L 133.121346 -363.93573 
L 134.185954 -363.93573 
L 135.250561 -363.93573 
L 136.315169 -363.93573 
L 137.379777 -363.93573 
L 138.444384 -363.93573 
L 139.508992 -363.93573 
L 140.5736 -363.93573 
L 141.638208 -363.93573 
L 142.702815 -363.93573 
L 143.767423 -363.93573 
L 144.832031 -363.93573 
L 145.896638 -363.93573 
L 146.961246 -363.93573 
L 148.025854 -363.93573 
L 149.090462 -363.93573 
L 150.155069 -363.93573 
L 151.219677 -363.93573 
L 152.284285 -363.93573 
L 153.348892 -363.93573 
L 154.4135 -363.93573 
L 155.478108 -363.93573 
L 156.542715 -363.93573 
L 157.607323 -363.93573 
L 158.671931 -363.93573 
L 159.736539 -363.93573 
L 160.801146 -363.93573 
L 161.865754 -363.93573 
L 162.930362 -363.93573 
L 163.994969 -363.93573 
L 165.059577 -363.93573 
L 166.124185 -363.93573 
L 167.188793 -363.93573 
L 168.2534 -363.93573 
L 169.318008 -363.93573 
L 170.382616 -363.93573 
L 171.447223 -363.93573 
L 172.511831 -363.93573 
L 173.576439 -363.93573 
L 174.641047 -363.93573 
L 175.705654 -363.93573 
L 176.770262 -363.93573 
L 177.83487 -363.93573 
L 178.899477 -363.93573 
L 179.964085 -363.93573 
L 181.028693 -363.93573 
L 182.093301 -363.93573 
L 183.157908 -363.93573 
L 184.222516 -363.93573 
L 185.287124 -363.93573 
L 186.351731 -363.93573 
L 187.416339 -363.93573 
L 188.480947 -363.93573 
L 189.545555 -363.93573 
L 190.610162 -363.93573 
L 191.67477 -363.93573 
L 192.739378 -363.93573 
L 193.803985 -363.93573 
L 194.868593 -363.93573 
L 195.933201 -363.93573 
L 196.997808 -363.93573 
L 198.062416 -363.93573 
L 199.127024 -363.93573 
L 200.191632 -363.93573 
L 201.256239 -363.93573 
L 202.320847 -363.93573 
L 203.385455 -363.93573 
L 204.450062 -363.93573 
L 205.51467 -363.93573 
L 206.579278 -363.93573 
L 207.643886 -363.93573 
L 208.708493 -363.93573 
L 209.773101 -363.93573 
L 210.837709 -363.93573 
L 211.902316 -363.93573 
L 212.966924 -363.93573 
L 214.031532 -363.93573 
L 215.09614 -363.93573 
L 216.160747 -363.93573 
L 217.225355 -363.93573 
L 218.289963 -363.93573 
L 219.35457 -363.93573 
L 220.419178 -363.93573 
L 221.483786 -363.93573 
L 222.548394 -363.93573 
L 223.613001 -363.93573 
L 224.677609 -363.93573 
L 225.742217 -363.93573 
L 226.806824 -363.93573 
L 227.871432 -363.93573 
L 228.93604 -363.93573 
L 230.000647 -363.93573 
L 231.065255 -363.93573 
L 232.129863 -363.93573 
L 233.194471 -363.93573 
L 234.259078 -363.93573 
L 235.323686 -363.93573 
L 236.388294 -363.93573 
L 237.452901 -363.93573 
L 238.517509 -363.93573 
L 239.582117 -363.93573 
L 240.646725 -363.93573 
L 241.711332 -363.93573 
L 242.77594 -363.93573 
L 243.840548 -363.93573 
L 244.905155 -363.93573 
L 245.969763 -363.93573 
L 247.034371 -363.93573 
L 248.098979 -363.93573 
L 249.163586 -363.93573 
L 250.228194 -363.93573 
L 251.292802 -363.93573 
L 252.357409 -363.93573 
L 253.422017 -363.93573 
L 254.486625 -363.93573 
L 255.551233 -363.93573 
L 256.61584 -363.93573 
L 257.680448 -363.93573 
L 258.745056 -363.93573 
L 259.809663 -363.93573 
L 260.874271 -363.93573 
L 261.938879 -363.93573 
L 263.003486 -363.93573 
L 264.068094 -363.93573 
L 265.132702 -363.93573 
L 266.19731 -363.93573 
L 267.261917 -363.93573 
L 268.326525 -363.93573 
L 269.391133 -363.93573 
L 270.45574 -363.93573 
L 271.520348 -363.93573 
L 272.584956 -363.93573 
L 272.584956 -363.943582 
L 272.584956 -363.943582 
L 271.520348 -363.947129 
L 270.45574 -363.952119 
L 269.391133 -363.959067 
L 268.326525 -363.968645 
L 267.261917 -363.981718 
L 266.19731 -363.999386 
L 265.132702 -364.023029 
L 264.068094 -364.054361 
L 263.003486 -364.095481 
L 261.938879 -364.148925 
L 260.874271 -364.21772 
L 259.809663 -364.305422 
L 258.745056 -364.416154 
L 257.680448 -364.554624 
L 256.61584 -364.726113 
L 255.551233 -364.936451 
L 254.486625 -365.191952 
L 253.422017 -365.499309 
L 252.357409 -365.865458 
L 251.292802 -366.297399 
L 250.228194 -366.801971 
L 249.163586 -367.385606 
L 248.098979 -368.054049 
L 247.034371 -368.812062 
L 245.969763 -369.663138 
L 244.905155 -370.609228 
L 243.840548 -371.650498 
L 242.77594 -372.785157 
L 241.711332 -374.009345 
L 240.646725 -375.317116 
L 239.582117 -376.700518 
L 238.517509 -378.149775 
L 237.452901 -379.653573 
L 236.388294 -381.199437 
L 235.323686 -382.774176 
L 234.259078 -384.364391 
L 233.194471 -385.956995 
L 232.129863 -387.53973 
L 231.065255 -389.101641 
L 230.000647 -390.63348 
L 228.93604 -392.128015 
L 227.871432 -393.580223 
L 226.806824 -394.98736 
L 225.742217 -396.348905 
L 224.677609 -397.666391 
L 223.613001 -398.943133 
L 222.548394 -400.183894 
L 221.483786 -401.394492 
L 220.419178 -402.58141 
L 219.35457 -403.751409 
L 218.289963 -404.911191 
L 217.225355 -406.067112 
L 216.160747 -407.224972 
L 215.09614 -408.389871 
L 214.031532 -409.566131 
L 212.966924 -410.757271 
L 211.902316 -411.966021 
L 210.837709 -413.194343 
L 209.773101 -414.443459 
L 208.708493 -415.713859 
L 207.643886 -417.005281 
L 206.579278 -418.316652 
L 205.51467 -419.646007 
L 204.450062 -420.990374 
L 203.385455 -422.345651 
L 202.320847 -423.706486 
L 201.256239 -425.066183 
L 200.191632 -426.41664 
L 199.127024 -427.748362 
L 198.062416 -429.050525 
L 196.997808 -430.311139 
L 195.933201 -431.517285 
L 194.868593 -432.655435 
L 193.803985 -433.711841 
L 192.739378 -434.672988 
L 191.67477 -435.526072 
L 190.610162 -436.259504 
L 189.545555 -436.863402 
L 188.480947 -437.330038 
L 187.416339 -437.654248 
L 186.351731 -437.833746 
L 185.287124 -437.869356 
L 184.222516 -437.765133 
L 183.157908 -437.528372 
L 182.093301 -437.16949 
L 181.028693 -436.701803 
L 179.964085 -436.141173 
L 178.899477 -435.505555 
L 177.83487 -434.81445 
L 176.770262 -434.088277 
L 175.705654 -433.347688 
L 174.641047 -432.612857 
L 173.576439 -431.902766 
L 172.511831 -431.234523 
L 171.447223 -430.622756 
L 170.382616 -430.079106 
L 169.318008 -429.611848 
L 168.2534 -429.22568 
L 167.188793 -428.921673 
L 166.124185 -428.697392 
L 165.059577 -428.547186 
L 163.994969 -428.462612 
L 162.930362 -428.432969 
L 161.865754 -428.445895 
L 160.801146 -428.487995 
L 159.736539 -428.545452 
L 158.671931 -428.604585 
L 157.607323 -428.652334 
L 156.542715 -428.676645 
L 155.478108 -428.666766 
L 154.4135 -428.613446 
L 153.348892 -428.509055 
L 152.284285 -428.347648 
L 151.219677 -428.124984 
L 150.155069 -427.838514 
L 149.090462 -427.48736 
L 148.025854 -427.07227 
L 146.961246 -426.595559 
L 145.896638 -426.061014 
L 144.832031 -425.473767 
L 143.767423 -424.840109 
L 142.702815 -424.167254 
L 141.638208 -423.463042 
L 140.5736 -422.735597 
L 139.508992 -421.992962 
L 138.444384 -421.242728 
L 137.379777 -420.491686 
L 136.315169 -419.745548 
L 135.250561 -419.008741 
L 134.185954 -418.284307 
L 133.121346 -417.573922 
L 132.056738 -416.878014 
L 130.99213 -416.195985 
L 129.927523 -415.526503 
L 128.862915 -414.867837 
L 127.798307 -414.218189 
L 126.7337 -413.576014 
L 125.669092 -412.940261 
L 124.604484 -412.310551 
L 123.539876 -411.687243 
L 122.475269 -411.07141 
L 121.410661 -410.464719 
L 120.346053 -409.869232 
L 119.281446 -409.287152 
L 118.216838 -408.720537 
L 117.15223 -408.171002 
L 116.087623 -407.639441 
L 115.023015 -407.125784 
L 113.958407 -406.628801 
L 112.893799 -406.145963 
L 111.829192 -405.673364 
L 110.764584 -405.205701 
L 109.699976 -404.736322 
L 108.635369 -404.257318 
L 107.570761 -403.75967 
L 106.506153 -403.233457 
L 105.441545 -402.6681 
L 104.376938 -402.052669 
L 103.31233 -401.376232 
L 102.247722 -400.628255 
L 101.183115 -399.799037 
L 100.118507 -398.880175 
L 99.053899 -397.865033 
L 97.989291 -396.749193 
L 96.924684 -395.530865 
L 95.860076 -394.211215 
L 94.795468 -392.794584 
L 93.730861 -391.28858 
L 92.666253 -389.704003 
L 91.601645 -388.054621 
L 90.537037 -386.356776 
L 89.47243 -384.628843 
L 88.407822 -382.890578 
L 87.343214 -381.162374 
L 86.278607 -379.464489 
L 85.213999 -377.816277 
L 84.149391 -376.235482 
L 83.084784 -374.737629 
L 82.020176 -373.335545 
L 80.955568 -372.039042 
L 79.89096 -370.854758 
L 78.826353 -369.786171 
L 77.761745 -368.833747 
L 76.697137 -367.995236 
L 75.63253 -367.266042 
L 74.567922 -366.639677 
L 73.503314 -366.108229 
L 72.438706 -365.66284 
L 71.374099 -365.294149 
L 70.309491 -364.99269 
L 69.244883 -364.749225 
L 68.180276 -364.555009 
L 67.115668 -364.401981 
L 66.05106 -364.282884 
L 64.986452 -364.191333 
L 63.921845 -364.12182 
L 62.857237 -364.069688 
L 61.792629 -364.03107 
L 60.728022 -364.002815 
z
" style="stroke: #0173b2; stroke-width: 0.9"/>
    </defs>
    <g clip-path="url(#p7094658f5e)">
     <use xlink:href="#m182a3eaa32" x="0" y="462.364475" style="fill: #0173b2; fill-opacity: 0.7; stroke: #0173b2; stroke-width: 0.9"/>
    </g>
   </g>
   <g id="line2d_13">
    <path d="M 41.265312 98.428745 
L 301.902913 98.428745 
" style="fill: none; stroke: #808080; stroke-linecap: round"/>
   </g>
   <g id="patch_3">
    <path d="M 41.265312 98.428745 
L 41.265312 20.798437 
" style="fill: none; stroke: #cccccc; stroke-linejoin: miter; stroke-linecap: square"/>
   </g>
   <g id="patch_4">
    <path d="M 41.265312 98.428745 
L 301.902913 98.428745 
" style="fill: none; stroke: #cccccc; stroke-linejoin: miter; stroke-linecap: square"/>
   </g>
   <g id="text_5">
    <!-- gen_id = 12 -->
    <g style="fill: #262626" transform="translate(141.370831 14.798437) scale(0.1 -0.1)">
     <defs>
      <path id="DejaVuSans-67" d="M 2906 1791 
Q 2906 2416 2648 2759 
Q 2391 3103 1925 3103 
Q 1463 3103 1205 2759 
Q 947 2416 947 1791 
Q 947 1169 1205 825 
Q 1463 481 1925 481 
Q 2391 481 2648 825 
Q 2906 1169 2906 1791 
z
M 3481 434 
Q 3481 -459 3084 -895 
Q 2688 -1331 1869 -1331 
Q 1566 -1331 1297 -1286 
Q 1028 -1241 775 -1147 
L 775 -588 
Q 1028 -725 1275 -790 
Q 1522 -856 1778 -856 
Q 2344 -856 2625 -561 
Q 2906 -266 2906 331 
L 2906 616 
Q 2728 306 2450 153 
Q 2172 0 1784 0 
Q 1141 0 747 490 
Q 353 981 353 1791 
Q 353 2603 747 3093 
Q 1141 3584 1784 3584 
Q 2172 3584 2450 3431 
Q 2728 3278 2906 2969 
L 2906 3500 
L 3481 3500 
L 3481 434 
z
" transform="scale(0.015625)"/>
      <path id="DejaVuSans-65" d="M 3597 1894 
L 3597 1613 
L 953 1613 
Q 991 1019 1311 708 
Q 1631 397 2203 397 
Q 2534 397 2845 478 
Q 3156 559 3463 722 
L 3463 178 
Q 3153 47 2828 -22 
Q 2503 -91 2169 -91 
Q 1331 -91 842 396 
Q 353 884 353 1716 
Q 353 2575 817 3079 
Q 1281 3584 2069 3584 
Q 2775 3584 3186 3129 
Q 3597 2675 3597 1894 
z
M 3022 2063 
Q 3016 2534 2758 2815 
Q 2500 3097 2075 3097 
Q 1594 3097 1305 2825 
Q 1016 2553 972 2059 
L 3022 2063 
z
" transform="scale(0.015625)"/>
      <path id="DejaVuSans-6e" d="M 3513 2113 
L 3513 0 
L 2938 0 
L 2938 2094 
Q 2938 2591 2744 2837 
Q 2550 3084 2163 3084 
Q 1697 3084 1428 2787 
Q 1159 2491 1159 1978 
L 1159 0 
L 581 0 
L 581 3500 
L 1159 3500 
L 1159 2956 
Q 1366 3272 1645 3428 
Q 1925 3584 2291 3584 
Q 2894 3584 3203 3211 
Q 3513 2838 3513 2113 
z
" transform="scale(0.015625)"/>
      <path id="DejaVuSans-5f" d="M 3263 -1063 
L 3263 -1509 
L -63 -1509 
L -63 -1063 
L 3263 -1063 
z
" transform="scale(0.015625)"/>
      <path id="DejaVuSans-69" d="M 603 3500 
L 1178 3500 
L 1178 0 
L 603 0 
L 603 3500 
z
M 603 4863 
L 1178 4863 
L 1178 4134 
L 603 4134 
L 603 4863 
z
" transform="scale(0.015625)"/>
      <path id="DejaVuSans-64" d="M 2906 2969 
L 2906 4863 
L 3481 4863 
L 3481 0 
L 2906 0 
L 2906 525 
Q 2725 213 2448 61 
Q 2172 -91 1784 -91 
Q 1150 -91 751 415 
Q 353 922 353 1747 
Q 353 2572 751 3078 
Q 1150 3584 1784 3584 
Q 2172 3584 2448 3432 
Q 2725 3281 2906 2969 
z
M 947 1747 
Q 947 1113 1208 752 
Q 1469 391 1925 391 
Q 2381 391 2643 752 
Q 2906 1113 2906 1747 
Q 2906 2381 2643 2742 
Q 2381 3103 1925 3103 
Q 1469 3103 1208 2742 
Q 947 2381 947 1747 
z
" transform="scale(0.015625)"/>
      <path id="DejaVuSans-20" transform="scale(0.015625)"/>
      <path id="DejaVuSans-3d" d="M 678 2906 
L 4684 2906 
L 4684 2381 
L 678 2381 
L 678 2906 
z
M 678 1631 
L 4684 1631 
L 4684 1100 
L 678 1100 
L 678 1631 
z
" transform="scale(0.015625)"/>
      <path id="DejaVuSans-32" d="M 1228 531 
L 3431 531 
L 3431 0 
L 469 0 
L 469 531 
Q 828 903 1448 1529 
Q 2069 2156 2228 2338 
Q 2531 2678 2651 2914 
Q 2772 3150 2772 3378 
Q 2772 3750 2511 3984 
Q 2250 4219 1831 4219 
Q 1534 4219 1204 4116 
Q 875 4013 500 3803 
L 500 4441 
Q 881 4594 1212 4672 
Q 1544 4750 1819 4750 
Q 2544 4750 2975 4387 
Q 3406 4025 3406 3419 
Q 3406 3131 3298 2873 
Q 3191 2616 2906 2266 
Q 2828 2175 2409 1742 
Q 1991 1309 1228 531 
z
" transform="scale(0.015625)"/>
     </defs>
     <use xlink:href="#DejaVuSans-67"/>
     <use xlink:href="#DejaVuSans-65" transform="translate(63.476562 0)"/>
     <use xlink:href="#DejaVuSans-6e" transform="translate(125 0)"/>
     <use xlink:href="#DejaVuSans-5f" transform="translate(188.378906 0)"/>
     <use xlink:href="#DejaVuSans-69" transform="translate(238.378906 0)"/>
     <use xlink:href="#DejaVuSans-64" transform="translate(266.162109 0)"/>
     <use xlink:href="#DejaVuSans-20" transform="translate(329.638672 0)"/>
     <use xlink:href="#DejaVuSans-3d" transform="translate(361.425781 0)"/>
     <use xlink:href="#DejaVuSans-20" transform="translate(445.214844 0)"/>
     <use xlink:href="#DejaVuSans-31" transform="translate(477.001953 0)"/>
     <use xlink:href="#DejaVuSans-32" transform="translate(540.625 0)"/>
    </g>
   </g>
  </g>
  <g id="axes_2">
   <g id="patch_5">
    <path d="M 41.265312 179.940568 
L 301.902913 179.940568 
L 301.902913 102.310261 
L 41.265312 102.310261 
z
" style="fill: #ffffff"/>
   </g>
   <g id="matplotlib.axis_3">
    <g id="xtick_9">
     <g id="line2d_14">
      <path d="M 56.606225 179.940568 
L 56.606225 102.310261 
" clip-path="url(#p015604aba6)" style="fill: none; stroke-dasharray: 2.96,1.28; stroke-dashoffset: 0; stroke: #cccccc; stroke-opacity: 0.3; stroke-width: 0.8"/>
     </g>
    </g>
    <g id="xtick_10">
     <g id="line2d_15">
      <path d="M 89.45705 179.940568 
L 89.45705 102.310261 
" clip-path="url(#p015604aba6)" style="fill: none; stroke-dasharray: 2.96,1.28; stroke-dashoffset: 0; stroke: #cccccc; stroke-opacity: 0.3; stroke-width: 0.8"/>
     </g>
    </g>
    <g id="xtick_11">
     <g id="line2d_16">
      <path d="M 122.307875 179.940568 
L 122.307875 102.310261 
" clip-path="url(#p015604aba6)" style="fill: none; stroke-dasharray: 2.96,1.28; stroke-dashoffset: 0; stroke: #cccccc; stroke-opacity: 0.3; stroke-width: 0.8"/>
     </g>
    </g>
    <g id="xtick_12">
     <g id="line2d_17">
      <path d="M 155.1587 179.940568 
L 155.1587 102.310261 
" clip-path="url(#p015604aba6)" style="fill: none; stroke-dasharray: 2.96,1.28; stroke-dashoffset: 0; stroke: #cccccc; stroke-opacity: 0.3; stroke-width: 0.8"/>
     </g>
    </g>
    <g id="xtick_13">
     <g id="line2d_18">
      <path d="M 188.009525 179.940568 
L 188.009525 102.310261 
" clip-path="url(#p015604aba6)" style="fill: none; stroke-dasharray: 2.96,1.28; stroke-dashoffset: 0; stroke: #cccccc; stroke-opacity: 0.3; stroke-width: 0.8"/>
     </g>
    </g>
    <g id="xtick_14">
     <g id="line2d_19">
      <path d="M 220.86035 179.940568 
L 220.86035 102.310261 
" clip-path="url(#p015604aba6)" style="fill: none; stroke-dasharray: 2.96,1.28; stroke-dashoffset: 0; stroke: #cccccc; stroke-opacity: 0.3; stroke-width: 0.8"/>
     </g>
    </g>
    <g id="xtick_15">
     <g id="line2d_20">
      <path d="M 253.711175 179.940568 
L 253.711175 102.310261 
" clip-path="url(#p015604aba6)" style="fill: none; stroke-dasharray: 2.96,1.28; stroke-dashoffset: 0; stroke: #cccccc; stroke-opacity: 0.3; stroke-width: 0.8"/>
     </g>
    </g>
    <g id="xtick_16">
     <g id="line2d_21">
      <path d="M 286.562 179.940568 
L 286.562 102.310261 
" clip-path="url(#p015604aba6)" style="fill: none; stroke-dasharray: 2.96,1.28; stroke-dashoffset: 0; stroke: #cccccc; stroke-opacity: 0.3; stroke-width: 0.8"/>
     </g>
    </g>
   </g>
   <g id="matplotlib.axis_4">
    <g id="ytick_5">
     <g id="line2d_22">
      <path d="M 41.265312 179.940568 
L 301.902913 179.940568 
" clip-path="url(#p015604aba6)" style="fill: none; stroke: #cccccc; stroke-width: 0.8; stroke-linecap: round"/>
     </g>
     <g id="text_6">
      <!-- 0.000 -->
      <g style="fill: #262626" transform="translate(7.2 183.359865) scale(0.09 -0.09)">
       <use xlink:href="#DejaVuSans-30"/>
       <use xlink:href="#DejaVuSans-2e" transform="translate(63.623047 0)"/>
       <use xlink:href="#DejaVuSans-30" transform="translate(95.410156 0)"/>
       <use xlink:href="#DejaVuSans-30" transform="translate(159.033203 0)"/>
       <use xlink:href="#DejaVuSans-30" transform="translate(222.65625 0)"/>
      </g>
     </g>
    </g>
    <g id="ytick_6">
     <g id="line2d_23">
      <path d="M 41.265312 145.39914 
L 301.902913 145.39914 
" clip-path="url(#p015604aba6)" style="fill: none; stroke: #cccccc; stroke-width: 0.8; stroke-linecap: round"/>
     </g>
     <g id="text_7">
      <!-- 0.005 -->
      <g style="fill: #262626" transform="translate(7.2 148.818437) scale(0.09 -0.09)">
       <use xlink:href="#DejaVuSans-30"/>
       <use xlink:href="#DejaVuSans-2e" transform="translate(63.623047 0)"/>
       <use xlink:href="#DejaVuSans-30" transform="translate(95.410156 0)"/>
       <use xlink:href="#DejaVuSans-30" transform="translate(159.033203 0)"/>
       <use xlink:href="#DejaVuSans-35" transform="translate(222.65625 0)"/>
      </g>
     </g>
    </g>
    <g id="ytick_7">
     <g id="line2d_24">
      <path d="M 41.265312 110.857712 
L 301.902913 110.857712 
" clip-path="url(#p015604aba6)" style="fill: none; stroke: #cccccc; stroke-width: 0.8; stroke-linecap: round"/>
     </g>
     <g id="text_8">
      <!-- 0.010 -->
      <g style="fill: #262626" transform="translate(7.2 114.277009) scale(0.09 -0.09)">
       <use xlink:href="#DejaVuSans-30"/>
       <use xlink:href="#DejaVuSans-2e" transform="translate(63.623047 0)"/>
       <use xlink:href="#DejaVuSans-30" transform="translate(95.410156 0)"/>
       <use xlink:href="#DejaVuSans-31" transform="translate(159.033203 0)"/>
       <use xlink:href="#DejaVuSans-30" transform="translate(222.65625 0)"/>
      </g>
     </g>
    </g>
   </g>
   <g id="FillBetweenPolyCollection_2">
    <defs>
     <path id="m291b5b8d3e" d="M 53.112476 -282.529469 
L 53.112476 -282.423907 
L 54.303146 -282.423907 
L 55.493816 -282.423907 
L 56.684485 -282.423907 
L 57.875155 -282.423907 
L 59.065825 -282.423907 
L 60.256494 -282.423907 
L 61.447164 -282.423907 
L 62.637834 -282.423907 
L 63.828504 -282.423907 
L 65.019173 -282.423907 
L 66.209843 -282.423907 
L 67.400513 -282.423907 
L 68.591182 -282.423907 
L 69.781852 -282.423907 
L 70.972522 -282.423907 
L 72.163192 -282.423907 
L 73.353861 -282.423907 
L 74.544531 -282.423907 
L 75.735201 -282.423907 
L 76.92587 -282.423907 
L 78.11654 -282.423907 
L 79.30721 -282.423907 
L 80.49788 -282.423907 
L 81.688549 -282.423907 
L 82.879219 -282.423907 
L 84.069889 -282.423907 
L 85.260558 -282.423907 
L 86.451228 -282.423907 
L 87.641898 -282.423907 
L 88.832568 -282.423907 
L 90.023237 -282.423907 
L 91.213907 -282.423907 
L 92.404577 -282.423907 
L 93.595246 -282.423907 
L 94.785916 -282.423907 
L 95.976586 -282.423907 
L 97.167255 -282.423907 
L 98.357925 -282.423907 
L 99.548595 -282.423907 
L 100.739265 -282.423907 
L 101.929934 -282.423907 
L 103.120604 -282.423907 
L 104.311274 -282.423907 
L 105.501943 -282.423907 
L 106.692613 -282.423907 
L 107.883283 -282.423907 
L 109.073953 -282.423907 
L 110.264622 -282.423907 
L 111.455292 -282.423907 
L 112.645962 -282.423907 
L 113.836631 -282.423907 
L 115.027301 -282.423907 
L 116.217971 -282.423907 
L 117.408641 -282.423907 
L 118.59931 -282.423907 
L 119.78998 -282.423907 
L 120.98065 -282.423907 
L 122.171319 -282.423907 
L 123.361989 -282.423907 
L 124.552659 -282.423907 
L 125.743329 -282.423907 
L 126.933998 -282.423907 
L 128.124668 -282.423907 
L 129.315338 -282.423907 
L 130.506007 -282.423907 
L 131.696677 -282.423907 
L 132.887347 -282.423907 
L 134.078017 -282.423907 
L 135.268686 -282.423907 
L 136.459356 -282.423907 
L 137.650026 -282.423907 
L 138.840695 -282.423907 
L 140.031365 -282.423907 
L 141.222035 -282.423907 
L 142.412705 -282.423907 
L 143.603374 -282.423907 
L 144.794044 -282.423907 
L 145.984714 -282.423907 
L 147.175383 -282.423907 
L 148.366053 -282.423907 
L 149.556723 -282.423907 
L 150.747393 -282.423907 
L 151.938062 -282.423907 
L 153.128732 -282.423907 
L 154.319402 -282.423907 
L 155.510071 -282.423907 
L 156.700741 -282.423907 
L 157.891411 -282.423907 
L 159.082081 -282.423907 
L 160.27275 -282.423907 
L 161.46342 -282.423907 
L 162.65409 -282.423907 
L 163.844759 -282.423907 
L 165.035429 -282.423907 
L 166.226099 -282.423907 
L 167.416769 -282.423907 
L 168.607438 -282.423907 
L 169.798108 -282.423907 
L 170.988778 -282.423907 
L 172.179447 -282.423907 
L 173.370117 -282.423907 
L 174.560787 -282.423907 
L 175.751456 -282.423907 
L 176.942126 -282.423907 
L 178.132796 -282.423907 
L 179.323466 -282.423907 
L 180.514135 -282.423907 
L 181.704805 -282.423907 
L 182.895475 -282.423907 
L 184.086144 -282.423907 
L 185.276814 -282.423907 
L 186.467484 -282.423907 
L 187.658154 -282.423907 
L 188.848823 -282.423907 
L 190.039493 -282.423907 
L 191.230163 -282.423907 
L 192.420832 -282.423907 
L 193.611502 -282.423907 
L 194.802172 -282.423907 
L 195.992842 -282.423907 
L 197.183511 -282.423907 
L 198.374181 -282.423907 
L 199.564851 -282.423907 
L 200.75552 -282.423907 
L 201.94619 -282.423907 
L 203.13686 -282.423907 
L 204.32753 -282.423907 
L 205.518199 -282.423907 
L 206.708869 -282.423907 
L 207.899539 -282.423907 
L 209.090208 -282.423907 
L 210.280878 -282.423907 
L 211.471548 -282.423907 
L 212.662218 -282.423907 
L 213.852887 -282.423907 
L 215.043557 -282.423907 
L 216.234227 -282.423907 
L 217.424896 -282.423907 
L 218.615566 -282.423907 
L 219.806236 -282.423907 
L 220.996906 -282.423907 
L 222.187575 -282.423907 
L 223.378245 -282.423907 
L 224.568915 -282.423907 
L 225.759584 -282.423907 
L 226.950254 -282.423907 
L 228.140924 -282.423907 
L 229.331594 -282.423907 
L 230.522263 -282.423907 
L 231.712933 -282.423907 
L 232.903603 -282.423907 
L 234.094272 -282.423907 
L 235.284942 -282.423907 
L 236.475612 -282.423907 
L 237.666282 -282.423907 
L 238.856951 -282.423907 
L 240.047621 -282.423907 
L 241.238291 -282.423907 
L 242.42896 -282.423907 
L 243.61963 -282.423907 
L 244.8103 -282.423907 
L 246.00097 -282.423907 
L 247.191639 -282.423907 
L 248.382309 -282.423907 
L 249.572979 -282.423907 
L 250.763648 -282.423907 
L 251.954318 -282.423907 
L 253.144988 -282.423907 
L 254.335657 -282.423907 
L 255.526327 -282.423907 
L 256.716997 -282.423907 
L 257.907667 -282.423907 
L 259.098336 -282.423907 
L 260.289006 -282.423907 
L 261.479676 -282.423907 
L 262.670345 -282.423907 
L 263.861015 -282.423907 
L 265.051685 -282.423907 
L 266.242355 -282.423907 
L 267.433024 -282.423907 
L 268.623694 -282.423907 
L 269.814364 -282.423907 
L 271.005033 -282.423907 
L 272.195703 -282.423907 
L 273.386373 -282.423907 
L 274.577043 -282.423907 
L 275.767712 -282.423907 
L 276.958382 -282.423907 
L 278.149052 -282.423907 
L 279.339721 -282.423907 
L 280.530391 -282.423907 
L 281.721061 -282.423907 
L 282.911731 -282.423907 
L 284.1024 -282.423907 
L 285.29307 -282.423907 
L 286.48374 -282.423907 
L 287.674409 -282.423907 
L 288.865079 -282.423907 
L 290.055749 -282.423907 
L 290.055749 -282.547302 
L 290.055749 -282.547302 
L 288.865079 -282.592369 
L 287.674409 -282.651851 
L 286.48374 -282.729605 
L 285.29307 -282.830269 
L 284.1024 -282.959341 
L 282.911731 -283.123252 
L 281.721061 -283.329408 
L 280.530391 -283.586211 
L 279.339721 -283.903037 
L 278.149052 -284.290173 
L 276.958382 -284.758692 
L 275.767712 -285.320278 
L 274.577043 -285.986979 
L 273.386373 -286.770907 
L 272.195703 -287.68387 
L 271.005033 -288.736963 
L 269.814364 -289.940109 
L 268.623694 -291.301593 
L 267.433024 -292.827589 
L 266.242355 -294.521708 
L 265.051685 -296.384605 
L 263.861015 -298.413653 
L 262.670345 -300.602719 
L 261.479676 -302.942053 
L 260.289006 -305.418322 
L 259.098336 -308.014766 
L 257.907667 -310.711509 
L 256.716997 -313.485997 
L 255.526327 -316.313548 
L 254.335657 -319.167997 
L 253.144988 -322.022408 
L 251.954318 -324.849804 
L 250.763648 -327.623905 
L 249.572979 -330.319814 
L 248.382309 -332.914638 
L 247.191639 -335.388015 
L 246.00097 -337.722509 
L 244.8103 -339.903894 
L 243.61963 -341.921287 
L 242.42896 -343.767165 
L 241.238291 -345.437251 
L 240.047621 -346.930308 
L 238.856951 -348.247841 
L 237.666282 -349.393751 
L 236.475612 -350.373945 
L 235.284942 -351.19594 
L 234.094272 -351.868474 
L 232.903603 -352.401134 
L 231.712933 -352.804034 
L 230.522263 -353.087528 
L 229.331594 -353.261974 
L 228.140924 -353.337556 
L 226.950254 -353.324148 
L 225.759584 -353.231224 
L 224.568915 -353.067815 
L 223.378245 -352.842495 
L 222.187575 -352.5634 
L 220.996906 -352.238268 
L 219.806236 -351.874501 
L 218.615566 -351.479232 
L 217.424896 -351.059406 
L 216.234227 -350.621853 
L 215.043557 -350.173354 
L 213.852887 -349.720687 
L 212.662218 -349.270659 
L 211.471548 -348.830095 
L 210.280878 -348.405796 
L 209.090208 -348.004456 
L 207.899539 -347.632536 
L 206.708869 -347.2961 
L 205.518199 -347.000623 
L 204.32753 -346.750772 
L 203.13686 -346.550189 
L 201.94619 -346.401275 
L 200.75552 -346.305016 
L 199.564851 -346.26085 
L 198.374181 -346.266602 
L 197.183511 -346.318505 
L 195.992842 -346.411304 
L 194.802172 -346.538453 
L 193.611502 -346.692408 
L 192.420832 -346.864986 
L 191.230163 -347.047788 
L 190.039493 -347.232658 
L 188.848823 -347.412146 
L 187.658154 -347.579942 
L 186.467484 -347.731271 
L 185.276814 -347.863193 
L 184.086144 -347.974803 
L 182.895475 -348.067321 
L 181.704805 -348.144038 
L 180.514135 -348.21015 
L 179.323466 -348.272461 
L 178.132796 -348.338988 
L 176.942126 -348.418491 
L 175.751456 -348.519941 
L 174.560787 -348.651982 
L 173.370117 -348.822391 
L 172.179447 -349.03759 
L 170.988778 -349.302227 
L 169.798108 -349.618848 
L 168.607438 -349.987675 
L 167.416769 -350.406508 
L 166.226099 -350.870745 
L 165.035429 -351.373516 
L 163.844759 -351.905927 
L 162.65409 -352.457386 
L 161.46342 -353.016007 
L 160.27275 -353.569059 
L 159.082081 -354.103436 
L 157.891411 -354.60614 
L 156.700741 -355.064731 
L 155.510071 -355.467753 
L 154.319402 -355.805096 
L 153.128732 -356.068302 
L 151.938062 -356.250793 
L 150.747393 -356.348019 
L 149.556723 -356.357533 
L 148.366053 -356.278986 
L 147.175383 -356.114053 
L 145.984714 -355.866299 
L 144.794044 -355.540991 
L 143.603374 -355.144865 
L 142.412705 -354.685876 
L 141.222035 -354.17292 
L 140.031365 -353.615556 
L 138.840695 -353.023742 
L 137.650026 -352.407572 
L 136.459356 -351.777054 
L 135.268686 -351.141903 
L 134.078017 -350.511376 
L 132.887347 -349.894132 
L 131.696677 -349.298121 
L 130.506007 -348.730501 
L 129.315338 -348.197565 
L 128.124668 -347.704684 
L 126.933998 -347.256238 
L 125.743329 -346.855551 
L 124.552659 -346.504804 
L 123.361989 -346.204931 
L 122.171319 -345.955499 
L 120.98065 -345.754571 
L 119.78998 -345.598555 
L 118.59931 -345.482065 
L 117.408641 -345.397793 
L 116.217971 -345.336407 
L 115.027301 -345.286512 
L 113.836631 -345.234669 
L 112.645962 -345.165495 
L 111.455292 -345.061859 
L 110.264622 -344.905188 
L 109.073953 -344.67586 
L 107.883283 -344.353713 
L 106.692613 -343.918628 
L 105.501943 -343.351191 
L 104.311274 -342.633393 
L 103.120604 -341.749348 
L 101.929934 -340.685986 
L 100.739265 -339.4337 
L 99.548595 -337.986892 
L 98.357925 -336.344406 
L 97.167255 -334.509805 
L 95.976586 -332.49147 
L 94.785916 -330.302527 
L 93.595246 -327.960572 
L 92.404577 -325.487228 
L 91.213907 -322.907521 
L 90.023237 -320.24914 
L 88.832568 -317.541575 
L 87.641898 -314.815206 
L 86.451228 -312.100362 
L 85.260558 -309.426415 
L 84.069889 -306.82093 
L 82.879219 -304.308928 
L 81.688549 -301.912271 
L 80.49788 -299.64921 
L 79.30721 -297.534094 
L 78.11654 -295.577249 
L 76.92587 -293.785011 
L 75.735201 -292.159915 
L 74.544531 -290.701 
L 73.353861 -289.404209 
L 72.163192 -288.262865 
L 70.972522 -287.268183 
L 69.781852 -286.409787 
L 68.591182 -285.676222 
L 67.400513 -285.055431 
L 66.209843 -284.535174 
L 65.019173 -284.103392 
L 63.828504 -283.748504 
L 62.637834 -283.459634 
L 61.447164 -283.226769 
L 60.256494 -283.040859 
L 59.065825 -282.893866 
L 57.875155 -282.77876 
L 56.684485 -282.689491 
L 55.493816 -282.620925 
L 54.303146 -282.568766 
L 53.112476 -282.529469 
z
" style="stroke: #de8f05; stroke-width: 0.9"/>
    </defs>
    <g clip-path="url(#p015604aba6)">
     <use xlink:href="#m291b5b8d3e" x="0" y="462.364475" style="fill: #de8f05; fill-opacity: 0.7; stroke: #de8f05; stroke-width: 0.9"/>
    </g>
   </g>
   <g id="line2d_25">
    <path d="M 41.265312 179.940568 
L 301.902913 179.940568 
" style="fill: none; stroke: #808080; stroke-linecap: round"/>
   </g>
   <g id="patch_6">
    <path d="M 41.265312 179.940568 
L 41.265312 102.310261 
" style="fill: none; stroke: #cccccc; stroke-linejoin: miter; stroke-linecap: square"/>
   </g>
   <g id="patch_7">
    <path d="M 41.265312 179.940568 
L 301.902913 179.940568 
" style="fill: none; stroke: #cccccc; stroke-linejoin: miter; stroke-linecap: square"/>
   </g>
   <g id="text_9">
    <!-- gen_id = 13 -->
    <g style="fill: #262626" transform="translate(141.370831 96.310261) scale(0.1 -0.1)">
     <defs>
      <path id="DejaVuSans-33" d="M 2597 2516 
Q 3050 2419 3304 2112 
Q 3559 1806 3559 1356 
Q 3559 666 3084 287 
Q 2609 -91 1734 -91 
Q 1441 -91 1130 -33 
Q 819 25 488 141 
L 488 750 
Q 750 597 1062 519 
Q 1375 441 1716 441 
Q 2309 441 2620 675 
Q 2931 909 2931 1356 
Q 2931 1769 2642 2001 
Q 2353 2234 1838 2234 
L 1294 2234 
L 1294 2753 
L 1863 2753 
Q 2328 2753 2575 2939 
Q 2822 3125 2822 3475 
Q 2822 3834 2567 4026 
Q 2313 4219 1838 4219 
Q 1578 4219 1281 4162 
Q 984 4106 628 3988 
L 628 4550 
Q 988 4650 1302 4700 
Q 1616 4750 1894 4750 
Q 2613 4750 3031 4423 
Q 3450 4097 3450 3541 
Q 3450 3153 3228 2886 
Q 3006 2619 2597 2516 
z
" transform="scale(0.015625)"/>
     </defs>
     <use xlink:href="#DejaVuSans-67"/>
     <use xlink:href="#DejaVuSans-65" transform="translate(63.476562 0)"/>
     <use xlink:href="#DejaVuSans-6e" transform="translate(125 0)"/>
     <use xlink:href="#DejaVuSans-5f" transform="translate(188.378906 0)"/>
     <use xlink:href="#DejaVuSans-69" transform="translate(238.378906 0)"/>
     <use xlink:href="#DejaVuSans-64" transform="translate(266.162109 0)"/>
     <use xlink:href="#DejaVuSans-20" transform="translate(329.638672 0)"/>
     <use xlink:href="#DejaVuSans-3d" transform="translate(361.425781 0)"/>
     <use xlink:href="#DejaVuSans-20" transform="translate(445.214844 0)"/>
     <use xlink:href="#DejaVuSans-31" transform="translate(477.001953 0)"/>
     <use xlink:href="#DejaVuSans-33" transform="translate(540.625 0)"/>
    </g>
   </g>
  </g>
  <g id="axes_3">
   <g id="patch_8">
    <path d="M 41.265312 261.452391 
L 301.902913 261.452391 
L 301.902913 183.822084 
L 41.265312 183.822084 
z
" style="fill: #ffffff"/>
   </g>
   <g id="matplotlib.axis_5">
    <g id="xtick_17">
     <g id="line2d_26">
      <path d="M 56.606225 261.452391 
L 56.606225 183.822084 
" clip-path="url(#p93ea73786a)" style="fill: none; stroke-dasharray: 2.96,1.28; stroke-dashoffset: 0; stroke: #cccccc; stroke-opacity: 0.3; stroke-width: 0.8"/>
     </g>
    </g>
    <g id="xtick_18">
     <g id="line2d_27">
      <path d="M 89.45705 261.452391 
L 89.45705 183.822084 
" clip-path="url(#p93ea73786a)" style="fill: none; stroke-dasharray: 2.96,1.28; stroke-dashoffset: 0; stroke: #cccccc; stroke-opacity: 0.3; stroke-width: 0.8"/>
     </g>
    </g>
    <g id="xtick_19">
     <g id="line2d_28">
      <path d="M 122.307875 261.452391 
L 122.307875 183.822084 
" clip-path="url(#p93ea73786a)" style="fill: none; stroke-dasharray: 2.96,1.28; stroke-dashoffset: 0; stroke: #cccccc; stroke-opacity: 0.3; stroke-width: 0.8"/>
     </g>
    </g>
    <g id="xtick_20">
     <g id="line2d_29">
      <path d="M 155.1587 261.452391 
L 155.1587 183.822084 
" clip-path="url(#p93ea73786a)" style="fill: none; stroke-dasharray: 2.96,1.28; stroke-dashoffset: 0; stroke: #cccccc; stroke-opacity: 0.3; stroke-width: 0.8"/>
     </g>
    </g>
    <g id="xtick_21">
     <g id="line2d_30">
      <path d="M 188.009525 261.452391 
L 188.009525 183.822084 
" clip-path="url(#p93ea73786a)" style="fill: none; stroke-dasharray: 2.96,1.28; stroke-dashoffset: 0; stroke: #cccccc; stroke-opacity: 0.3; stroke-width: 0.8"/>
     </g>
    </g>
    <g id="xtick_22">
     <g id="line2d_31">
      <path d="M 220.86035 261.452391 
L 220.86035 183.822084 
" clip-path="url(#p93ea73786a)" style="fill: none; stroke-dasharray: 2.96,1.28; stroke-dashoffset: 0; stroke: #cccccc; stroke-opacity: 0.3; stroke-width: 0.8"/>
     </g>
    </g>
    <g id="xtick_23">
     <g id="line2d_32">
      <path d="M 253.711175 261.452391 
L 253.711175 183.822084 
" clip-path="url(#p93ea73786a)" style="fill: none; stroke-dasharray: 2.96,1.28; stroke-dashoffset: 0; stroke: #cccccc; stroke-opacity: 0.3; stroke-width: 0.8"/>
     </g>
    </g>
    <g id="xtick_24">
     <g id="line2d_33">
      <path d="M 286.562 261.452391 
L 286.562 183.822084 
" clip-path="url(#p93ea73786a)" style="fill: none; stroke-dasharray: 2.96,1.28; stroke-dashoffset: 0; stroke: #cccccc; stroke-opacity: 0.3; stroke-width: 0.8"/>
     </g>
    </g>
   </g>
   <g id="matplotlib.axis_6">
    <g id="ytick_8">
     <g id="line2d_34">
      <path d="M 41.265312 261.452391 
L 301.902913 261.452391 
" clip-path="url(#p93ea73786a)" style="fill: none; stroke: #cccccc; stroke-width: 0.8; stroke-linecap: round"/>
     </g>
     <g id="text_10">
      <!-- 0.000 -->
      <g style="fill: #262626" transform="translate(7.2 264.871688) scale(0.09 -0.09)">
       <use xlink:href="#DejaVuSans-30"/>
       <use xlink:href="#DejaVuSans-2e" transform="translate(63.623047 0)"/>
       <use xlink:href="#DejaVuSans-30" transform="translate(95.410156 0)"/>
       <use xlink:href="#DejaVuSans-30" transform="translate(159.033203 0)"/>
       <use xlink:href="#DejaVuSans-30" transform="translate(222.65625 0)"/>
      </g>
     </g>
    </g>
    <g id="ytick_9">
     <g id="line2d_35">
      <path d="M 41.265312 236.470927 
L 301.902913 236.470927 
" clip-path="url(#p93ea73786a)" style="fill: none; stroke: #cccccc; stroke-width: 0.8; stroke-linecap: round"/>
     </g>
     <g id="text_11">
      <!-- 0.005 -->
      <g style="fill: #262626" transform="translate(7.2 239.890223) scale(0.09 -0.09)">
       <use xlink:href="#DejaVuSans-30"/>
       <use xlink:href="#DejaVuSans-2e" transform="translate(63.623047 0)"/>
       <use xlink:href="#DejaVuSans-30" transform="translate(95.410156 0)"/>
       <use xlink:href="#DejaVuSans-30" transform="translate(159.033203 0)"/>
       <use xlink:href="#DejaVuSans-35" transform="translate(222.65625 0)"/>
      </g>
     </g>
    </g>
    <g id="ytick_10">
     <g id="line2d_36">
      <path d="M 41.265312 211.489462 
L 301.902913 211.489462 
" clip-path="url(#p93ea73786a)" style="fill: none; stroke: #cccccc; stroke-width: 0.8; stroke-linecap: round"/>
     </g>
     <g id="text_12">
      <!-- 0.010 -->
      <g style="fill: #262626" transform="translate(7.2 214.908759) scale(0.09 -0.09)">
       <use xlink:href="#DejaVuSans-30"/>
       <use xlink:href="#DejaVuSans-2e" transform="translate(63.623047 0)"/>
       <use xlink:href="#DejaVuSans-30" transform="translate(95.410156 0)"/>
       <use xlink:href="#DejaVuSans-31" transform="translate(159.033203 0)"/>
       <use xlink:href="#DejaVuSans-30" transform="translate(222.65625 0)"/>
      </g>
     </g>
    </g>
    <g id="ytick_11">
     <g id="line2d_37">
      <path d="M 41.265312 186.507997 
L 301.902913 186.507997 
" clip-path="url(#p93ea73786a)" style="fill: none; stroke: #cccccc; stroke-width: 0.8; stroke-linecap: round"/>
     </g>
     <g id="text_13">
      <!-- 0.015 -->
      <g style="fill: #262626" transform="translate(7.2 189.927294) scale(0.09 -0.09)">
       <use xlink:href="#DejaVuSans-30"/>
       <use xlink:href="#DejaVuSans-2e" transform="translate(63.623047 0)"/>
       <use xlink:href="#DejaVuSans-30" transform="translate(95.410156 0)"/>
       <use xlink:href="#DejaVuSans-31" transform="translate(159.033203 0)"/>
       <use xlink:href="#DejaVuSans-35" transform="translate(222.65625 0)"/>
      </g>
     </g>
    </g>
   </g>
   <g id="FillBetweenPolyCollection_3">
    <defs>
     <path id="m38cfcdc0a7" d="M 60.165576 -200.984047 
L 60.165576 -200.912084 
L 61.277106 -200.912084 
L 62.388637 -200.912084 
L 63.500167 -200.912084 
L 64.611697 -200.912084 
L 65.723228 -200.912084 
L 66.834758 -200.912084 
L 67.946288 -200.912084 
L 69.057819 -200.912084 
L 70.169349 -200.912084 
L 71.280879 -200.912084 
L 72.392409 -200.912084 
L 73.50394 -200.912084 
L 74.61547 -200.912084 
L 75.727 -200.912084 
L 76.838531 -200.912084 
L 77.950061 -200.912084 
L 79.061591 -200.912084 
L 80.173122 -200.912084 
L 81.284652 -200.912084 
L 82.396182 -200.912084 
L 83.507713 -200.912084 
L 84.619243 -200.912084 
L 85.730773 -200.912084 
L 86.842304 -200.912084 
L 87.953834 -200.912084 
L 89.065364 -200.912084 
L 90.176894 -200.912084 
L 91.288425 -200.912084 
L 92.399955 -200.912084 
L 93.511485 -200.912084 
L 94.623016 -200.912084 
L 95.734546 -200.912084 
L 96.846076 -200.912084 
L 97.957607 -200.912084 
L 99.069137 -200.912084 
L 100.180667 -200.912084 
L 101.292198 -200.912084 
L 102.403728 -200.912084 
L 103.515258 -200.912084 
L 104.626788 -200.912084 
L 105.738319 -200.912084 
L 106.849849 -200.912084 
L 107.961379 -200.912084 
L 109.07291 -200.912084 
L 110.18444 -200.912084 
L 111.29597 -200.912084 
L 112.407501 -200.912084 
L 113.519031 -200.912084 
L 114.630561 -200.912084 
L 115.742092 -200.912084 
L 116.853622 -200.912084 
L 117.965152 -200.912084 
L 119.076682 -200.912084 
L 120.188213 -200.912084 
L 121.299743 -200.912084 
L 122.411273 -200.912084 
L 123.522804 -200.912084 
L 124.634334 -200.912084 
L 125.745864 -200.912084 
L 126.857395 -200.912084 
L 127.968925 -200.912084 
L 129.080455 -200.912084 
L 130.191986 -200.912084 
L 131.303516 -200.912084 
L 132.415046 -200.912084 
L 133.526577 -200.912084 
L 134.638107 -200.912084 
L 135.749637 -200.912084 
L 136.861167 -200.912084 
L 137.972698 -200.912084 
L 139.084228 -200.912084 
L 140.195758 -200.912084 
L 141.307289 -200.912084 
L 142.418819 -200.912084 
L 143.530349 -200.912084 
L 144.64188 -200.912084 
L 145.75341 -200.912084 
L 146.86494 -200.912084 
L 147.976471 -200.912084 
L 149.088001 -200.912084 
L 150.199531 -200.912084 
L 151.311061 -200.912084 
L 152.422592 -200.912084 
L 153.534122 -200.912084 
L 154.645652 -200.912084 
L 155.757183 -200.912084 
L 156.868713 -200.912084 
L 157.980243 -200.912084 
L 159.091774 -200.912084 
L 160.203304 -200.912084 
L 161.314834 -200.912084 
L 162.426365 -200.912084 
L 163.537895 -200.912084 
L 164.649425 -200.912084 
L 165.760955 -200.912084 
L 166.872486 -200.912084 
L 167.984016 -200.912084 
L 169.095546 -200.912084 
L 170.207077 -200.912084 
L 171.318607 -200.912084 
L 172.430137 -200.912084 
L 173.541668 -200.912084 
L 174.653198 -200.912084 
L 175.764728 -200.912084 
L 176.876259 -200.912084 
L 177.987789 -200.912084 
L 179.099319 -200.912084 
L 180.21085 -200.912084 
L 181.32238 -200.912084 
L 182.43391 -200.912084 
L 183.54544 -200.912084 
L 184.656971 -200.912084 
L 185.768501 -200.912084 
L 186.880031 -200.912084 
L 187.991562 -200.912084 
L 189.103092 -200.912084 
L 190.214622 -200.912084 
L 191.326153 -200.912084 
L 192.437683 -200.912084 
L 193.549213 -200.912084 
L 194.660744 -200.912084 
L 195.772274 -200.912084 
L 196.883804 -200.912084 
L 197.995334 -200.912084 
L 199.106865 -200.912084 
L 200.218395 -200.912084 
L 201.329925 -200.912084 
L 202.441456 -200.912084 
L 203.552986 -200.912084 
L 204.664516 -200.912084 
L 205.776047 -200.912084 
L 206.887577 -200.912084 
L 207.999107 -200.912084 
L 209.110638 -200.912084 
L 210.222168 -200.912084 
L 211.333698 -200.912084 
L 212.445228 -200.912084 
L 213.556759 -200.912084 
L 214.668289 -200.912084 
L 215.779819 -200.912084 
L 216.89135 -200.912084 
L 218.00288 -200.912084 
L 219.11441 -200.912084 
L 220.225941 -200.912084 
L 221.337471 -200.912084 
L 222.449001 -200.912084 
L 223.560532 -200.912084 
L 224.672062 -200.912084 
L 225.783592 -200.912084 
L 226.895122 -200.912084 
L 228.006653 -200.912084 
L 229.118183 -200.912084 
L 230.229713 -200.912084 
L 231.341244 -200.912084 
L 232.452774 -200.912084 
L 233.564304 -200.912084 
L 234.675835 -200.912084 
L 235.787365 -200.912084 
L 236.898895 -200.912084 
L 238.010426 -200.912084 
L 239.121956 -200.912084 
L 240.233486 -200.912084 
L 241.345017 -200.912084 
L 242.456547 -200.912084 
L 243.568077 -200.912084 
L 244.679607 -200.912084 
L 245.791138 -200.912084 
L 246.902668 -200.912084 
L 248.014198 -200.912084 
L 249.125729 -200.912084 
L 250.237259 -200.912084 
L 251.348789 -200.912084 
L 252.46032 -200.912084 
L 253.57185 -200.912084 
L 254.68338 -200.912084 
L 255.794911 -200.912084 
L 256.906441 -200.912084 
L 258.017971 -200.912084 
L 259.129501 -200.912084 
L 260.241032 -200.912084 
L 261.352562 -200.912084 
L 262.464092 -200.912084 
L 263.575623 -200.912084 
L 264.687153 -200.912084 
L 265.798683 -200.912084 
L 266.910214 -200.912084 
L 268.021744 -200.912084 
L 269.133274 -200.912084 
L 270.244805 -200.912084 
L 271.356335 -200.912084 
L 272.467865 -200.912084 
L 273.579395 -200.912084 
L 274.690926 -200.912084 
L 275.802456 -200.912084 
L 276.913986 -200.912084 
L 278.025517 -200.912084 
L 279.137047 -200.912084 
L 280.248577 -200.912084 
L 281.360108 -200.912084 
L 281.360108 -200.921703 
L 281.360108 -200.921703 
L 280.248577 -200.925995 
L 279.137047 -200.931967 
L 278.025517 -200.940174 
L 276.913986 -200.95131 
L 275.802456 -200.966236 
L 274.690926 -200.985992 
L 273.579395 -201.011819 
L 272.467865 -201.045172 
L 271.356335 -201.08772 
L 270.244805 -201.141346 
L 269.133274 -201.208134 
L 268.021744 -201.290342 
L 266.910214 -201.39037 
L 265.798683 -201.510721 
L 264.687153 -201.653949 
L 263.575623 -201.822618 
L 262.464092 -202.019259 
L 261.352562 -202.246337 
L 260.241032 -202.506239 
L 259.129501 -202.801282 
L 258.017971 -203.133743 
L 256.906441 -203.505911 
L 255.794911 -203.920159 
L 254.68338 -204.37902 
L 253.57185 -204.885267 
L 252.46032 -205.441969 
L 251.348789 -206.052507 
L 250.237259 -206.720547 
L 249.125729 -207.449933 
L 248.014198 -208.244515 
L 246.902668 -209.107899 
L 245.791138 -210.04312 
L 244.679607 -211.052283 
L 243.568077 -212.136167 
L 242.456547 -213.293858 
L 241.345017 -214.52243 
L 240.233486 -215.81673 
L 239.121956 -217.169289 
L 238.010426 -218.570406 
L 236.898895 -220.008394 
L 235.787365 -221.470012 
L 234.675835 -222.941039 
L 233.564304 -224.406976 
L 232.452774 -225.853806 
L 231.341244 -227.268769 
L 230.229713 -228.641078 
L 229.118183 -229.962527 
L 228.006653 -231.227934 
L 226.895122 -232.435386 
L 225.783592 -233.586277 
L 224.672062 -234.685119 
L 223.560532 -235.739182 
L 222.449001 -236.757963 
L 221.337471 -237.752557 
L 220.225941 -238.73497 
L 219.11441 -239.717429 
L 218.00288 -240.711751 
L 216.89135 -241.728779 
L 215.779819 -242.777951 
L 214.668289 -243.866983 
L 213.556759 -245.001685 
L 212.445228 -246.185895 
L 211.333698 -247.421509 
L 210.222168 -248.708587 
L 209.110638 -250.045502 
L 207.999107 -251.429113 
L 206.887577 -252.85493 
L 205.776047 -254.317256 
L 204.664516 -255.809295 
L 203.552986 -257.323213 
L 202.441456 -258.850167 
L 201.329925 -260.380302 
L 200.218395 -261.902728 
L 199.106865 -263.405506 
L 197.995334 -264.875667 
L 196.883804 -266.299277 
L 195.772274 -267.661576 
L 194.660744 -268.947223 
L 193.549213 -270.140635 
L 192.437683 -271.226436 
L 191.326153 -272.190014 
L 190.214622 -273.018144 
L 189.103092 -273.699675 
L 187.991562 -274.226202 
L 186.880031 -274.592716 
L 185.768501 -274.798137 
L 184.656971 -274.84571 
L 183.54544 -274.743198 
L 182.43391 -274.50285 
L 181.32238 -274.141111 
L 180.21085 -273.678085 
L 179.099319 -273.136763 
L 177.987789 -272.54205 
L 176.876259 -271.919659 
L 175.764728 -271.29493 
L 174.653198 -270.691646 
L 173.541668 -270.130943 
L 172.430137 -269.630364 
L 171.318607 -269.20313 
L 170.207077 -268.857668 
L 169.095546 -268.597421 
L 167.984016 -268.420936 
L 166.872486 -268.322216 
L 165.760955 -268.291292 
L 164.649425 -268.31497 
L 163.537895 -268.37768 
L 162.426365 -268.462378 
L 161.314834 -268.551433 
L 160.203304 -268.627443 
L 159.091774 -268.673963 
L 157.980243 -268.676096 
L 156.868713 -268.62095 
L 155.757183 -268.497974 
L 154.645652 -268.299159 
L 153.534122 -268.019155 
L 152.422592 -267.655296 
L 151.311061 -267.207574 
L 150.199531 -266.678553 
L 149.088001 -266.073255 
L 147.976471 -265.398989 
L 146.86494 -264.665146 
L 145.75341 -263.882926 
L 144.64188 -263.065005 
L 143.530349 -262.225133 
L 142.418819 -261.377655 
L 141.307289 -260.536981 
L 140.195758 -259.717008 
L 139.084228 -258.930527 
L 137.972698 -258.18866 
L 136.861167 -257.500344 
L 135.749637 -256.871916 
L 134.638107 -256.306829 
L 133.526577 -255.805513 
L 132.415046 -255.365409 
L 131.303516 -254.981171 
L 130.191986 -254.645016 
L 129.080455 -254.347206 
L 127.968925 -254.076622 
L 126.857395 -253.82139 
L 125.745864 -253.569515 
L 124.634334 -253.309471 
L 123.522804 -253.030726 
L 122.411273 -252.72415 
L 121.299743 -252.382309 
L 120.188213 -251.999607 
L 119.076682 -251.572306 
L 117.965152 -251.09841 
L 116.853622 -250.577443 
L 115.742092 -250.010143 
L 114.630561 -249.398094 
L 113.519031 -248.743335 
L 112.407501 -248.047952 
L 111.29597 -247.313709 
L 110.18444 -246.541715 
L 109.07291 -245.732156 
L 107.961379 -244.884116 
L 106.849849 -243.995482 
L 105.738319 -243.062958 
L 104.626788 -242.082186 
L 103.515258 -241.047966 
L 102.403728 -239.95458 
L 101.292198 -238.796205 
L 100.180667 -237.567389 
L 99.069137 -236.263574 
L 97.957607 -234.881632 
L 96.846076 -233.420371 
L 95.734546 -231.880984 
L 94.623016 -230.267392 
L 93.511485 -228.586453 
L 92.399955 -226.848007 
L 91.288425 -225.064743 
L 90.176894 -223.251883 
L 89.065364 -221.426697 
L 87.953834 -219.607871 
L 86.842304 -217.814778 
L 85.730773 -216.066683 
L 84.619243 -214.381955 
L 83.507713 -212.777325 
L 82.396182 -211.267247 
L 81.284652 -209.8634 
L 80.173122 -208.574355 
L 79.061591 -207.405429 
L 77.950061 -206.358706 
L 76.838531 -205.433233 
L 75.727 -204.625342 
L 74.61547 -203.92908 
L 73.50394 -203.336693 
L 72.392409 -202.839148 
L 71.280879 -202.426631 
L 70.169349 -202.089015 
L 69.057819 -201.816263 
L 67.946288 -201.598759 
L 66.834758 -201.427551 
L 65.723228 -201.294529 
L 64.611697 -201.192512 
L 63.500167 -201.115286 
L 62.388637 -201.057584 
L 61.277106 -201.015027 
L 60.165576 -200.984047 
z
" style="stroke: #029e73; stroke-width: 0.9"/>
    </defs>
    <g clip-path="url(#p93ea73786a)">
     <use xlink:href="#m38cfcdc0a7" x="0" y="462.364475" style="fill: #029e73; fill-opacity: 0.7; stroke: #029e73; stroke-width: 0.9"/>
    </g>
   </g>
   <g id="line2d_38">
    <path d="M 41.265312 261.452391 
L 301.902913 261.452391 
" style="fill: none; stroke: #808080; stroke-linecap: round"/>
   </g>
   <g id="patch_9">
    <path d="M 41.265312 261.452391 
L 41.265312 183.822084 
" style="fill: none; stroke: #cccccc; stroke-linejoin: miter; stroke-linecap: square"/>
   </g>
   <g id="patch_10">
    <path d="M 41.265312 261.452391 
L 301.902913 261.452391 
" style="fill: none; stroke: #cccccc; stroke-linejoin: miter; stroke-linecap: square"/>
   </g>
   <g id="text_14">
    <!-- gen_id = 14 -->
    <g style="fill: #262626" transform="translate(141.370831 177.822084) scale(0.1 -0.1)">
     <defs>
      <path id="DejaVuSans-34" d="M 2419 4116 
L 825 1625 
L 2419 1625 
L 2419 4116 
z
M 2253 4666 
L 3047 4666 
L 3047 1625 
L 3713 1625 
L 3713 1100 
L 3047 1100 
L 3047 0 
L 2419 0 
L 2419 1100 
L 313 1100 
L 313 1709 
L 2253 4666 
z
" transform="scale(0.015625)"/>
     </defs>
     <use xlink:href="#DejaVuSans-67"/>
     <use xlink:href="#DejaVuSans-65" transform="translate(63.476562 0)"/>
     <use xlink:href="#DejaVuSans-6e" transform="translate(125 0)"/>
     <use xlink:href="#DejaVuSans-5f" transform="translate(188.378906 0)"/>
     <use xlink:href="#DejaVuSans-69" transform="translate(238.378906 0)"/>
     <use xlink:href="#DejaVuSans-64" transform="translate(266.162109 0)"/>
     <use xlink:href="#DejaVuSans-20" transform="translate(329.638672 0)"/>
     <use xlink:href="#DejaVuSans-3d" transform="translate(361.425781 0)"/>
     <use xlink:href="#DejaVuSans-20" transform="translate(445.214844 0)"/>
     <use xlink:href="#DejaVuSans-31" transform="translate(477.001953 0)"/>
     <use xlink:href="#DejaVuSans-34" transform="translate(540.625 0)"/>
    </g>
   </g>
  </g>
  <g id="axes_4">
   <g id="patch_11">
    <path d="M 41.265312 342.964214 
L 301.902913 342.964214 
L 301.902913 265.333907 
L 41.265312 265.333907 
z
" style="fill: #ffffff"/>
   </g>
   <g id="matplotlib.axis_7">
    <g id="xtick_25">
     <g id="line2d_39">
      <path d="M 56.606225 342.964214 
L 56.606225 265.333907 
" clip-path="url(#pb95ae40292)" style="fill: none; stroke-dasharray: 2.96,1.28; stroke-dashoffset: 0; stroke: #cccccc; stroke-opacity: 0.3; stroke-width: 0.8"/>
     </g>
    </g>
    <g id="xtick_26">
     <g id="line2d_40">
      <path d="M 89.45705 342.964214 
L 89.45705 265.333907 
" clip-path="url(#pb95ae40292)" style="fill: none; stroke-dasharray: 2.96,1.28; stroke-dashoffset: 0; stroke: #cccccc; stroke-opacity: 0.3; stroke-width: 0.8"/>
     </g>
    </g>
    <g id="xtick_27">
     <g id="line2d_41">
      <path d="M 122.307875 342.964214 
L 122.307875 265.333907 
" clip-path="url(#pb95ae40292)" style="fill: none; stroke-dasharray: 2.96,1.28; stroke-dashoffset: 0; stroke: #cccccc; stroke-opacity: 0.3; stroke-width: 0.8"/>
     </g>
    </g>
    <g id="xtick_28">
     <g id="line2d_42">
      <path d="M 155.1587 342.964214 
L 155.1587 265.333907 
" clip-path="url(#pb95ae40292)" style="fill: none; stroke-dasharray: 2.96,1.28; stroke-dashoffset: 0; stroke: #cccccc; stroke-opacity: 0.3; stroke-width: 0.8"/>
     </g>
    </g>
    <g id="xtick_29">
     <g id="line2d_43">
      <path d="M 188.009525 342.964214 
L 188.009525 265.333907 
" clip-path="url(#pb95ae40292)" style="fill: none; stroke-dasharray: 2.96,1.28; stroke-dashoffset: 0; stroke: #cccccc; stroke-opacity: 0.3; stroke-width: 0.8"/>
     </g>
    </g>
    <g id="xtick_30">
     <g id="line2d_44">
      <path d="M 220.86035 342.964214 
L 220.86035 265.333907 
" clip-path="url(#pb95ae40292)" style="fill: none; stroke-dasharray: 2.96,1.28; stroke-dashoffset: 0; stroke: #cccccc; stroke-opacity: 0.3; stroke-width: 0.8"/>
     </g>
    </g>
    <g id="xtick_31">
     <g id="line2d_45">
      <path d="M 253.711175 342.964214 
L 253.711175 265.333907 
" clip-path="url(#pb95ae40292)" style="fill: none; stroke-dasharray: 2.96,1.28; stroke-dashoffset: 0; stroke: #cccccc; stroke-opacity: 0.3; stroke-width: 0.8"/>
     </g>
    </g>
    <g id="xtick_32">
     <g id="line2d_46">
      <path d="M 286.562 342.964214 
L 286.562 265.333907 
" clip-path="url(#pb95ae40292)" style="fill: none; stroke-dasharray: 2.96,1.28; stroke-dashoffset: 0; stroke: #cccccc; stroke-opacity: 0.3; stroke-width: 0.8"/>
     </g>
    </g>
   </g>
   <g id="matplotlib.axis_8">
    <g id="ytick_12">
     <g id="line2d_47">
      <path d="M 41.265312 342.964214 
L 301.902913 342.964214 
" clip-path="url(#pb95ae40292)" style="fill: none; stroke: #cccccc; stroke-width: 0.8; stroke-linecap: round"/>
     </g>
     <g id="text_15">
      <!-- 0.000 -->
      <g style="fill: #262626" transform="translate(7.2 346.383511) scale(0.09 -0.09)">
       <use xlink:href="#DejaVuSans-30"/>
       <use xlink:href="#DejaVuSans-2e" transform="translate(63.623047 0)"/>
       <use xlink:href="#DejaVuSans-30" transform="translate(95.410156 0)"/>
       <use xlink:href="#DejaVuSans-30" transform="translate(159.033203 0)"/>
       <use xlink:href="#DejaVuSans-30" transform="translate(222.65625 0)"/>
      </g>
     </g>
    </g>
    <g id="ytick_13">
     <g id="line2d_48">
      <path d="M 41.265312 316.687842 
L 301.902913 316.687842 
" clip-path="url(#pb95ae40292)" style="fill: none; stroke: #cccccc; stroke-width: 0.8; stroke-linecap: round"/>
     </g>
     <g id="text_16">
      <!-- 0.005 -->
      <g style="fill: #262626" transform="translate(7.2 320.107138) scale(0.09 -0.09)">
       <use xlink:href="#DejaVuSans-30"/>
       <use xlink:href="#DejaVuSans-2e" transform="translate(63.623047 0)"/>
       <use xlink:href="#DejaVuSans-30" transform="translate(95.410156 0)"/>
       <use xlink:href="#DejaVuSans-30" transform="translate(159.033203 0)"/>
       <use xlink:href="#DejaVuSans-35" transform="translate(222.65625 0)"/>
      </g>
     </g>
    </g>
    <g id="ytick_14">
     <g id="line2d_49">
      <path d="M 41.265312 290.411469 
L 301.902913 290.411469 
" clip-path="url(#pb95ae40292)" style="fill: none; stroke: #cccccc; stroke-width: 0.8; stroke-linecap: round"/>
     </g>
     <g id="text_17">
      <!-- 0.010 -->
      <g style="fill: #262626" transform="translate(7.2 293.830766) scale(0.09 -0.09)">
       <use xlink:href="#DejaVuSans-30"/>
       <use xlink:href="#DejaVuSans-2e" transform="translate(63.623047 0)"/>
       <use xlink:href="#DejaVuSans-30" transform="translate(95.410156 0)"/>
       <use xlink:href="#DejaVuSans-31" transform="translate(159.033203 0)"/>
       <use xlink:href="#DejaVuSans-30" transform="translate(222.65625 0)"/>
      </g>
     </g>
    </g>
   </g>
   <g id="FillBetweenPolyCollection_4">
    <defs>
     <path id="mabb6e6ec80" d="M 60.152831 -119.465699 
L 60.152831 -119.400261 
L 61.231473 -119.400261 
L 62.310116 -119.400261 
L 63.388758 -119.400261 
L 64.467401 -119.400261 
L 65.546043 -119.400261 
L 66.624686 -119.400261 
L 67.703328 -119.400261 
L 68.781971 -119.400261 
L 69.860613 -119.400261 
L 70.939256 -119.400261 
L 72.017898 -119.400261 
L 73.096541 -119.400261 
L 74.175183 -119.400261 
L 75.253826 -119.400261 
L 76.332468 -119.400261 
L 77.411111 -119.400261 
L 78.489753 -119.400261 
L 79.568396 -119.400261 
L 80.647038 -119.400261 
L 81.725681 -119.400261 
L 82.804323 -119.400261 
L 83.882966 -119.400261 
L 84.961608 -119.400261 
L 86.040251 -119.400261 
L 87.118893 -119.400261 
L 88.197536 -119.400261 
L 89.276178 -119.400261 
L 90.354821 -119.400261 
L 91.433463 -119.400261 
L 92.512106 -119.400261 
L 93.590748 -119.400261 
L 94.669391 -119.400261 
L 95.748033 -119.400261 
L 96.826676 -119.400261 
L 97.905318 -119.400261 
L 98.983961 -119.400261 
L 100.062603 -119.400261 
L 101.141246 -119.400261 
L 102.219888 -119.400261 
L 103.298531 -119.400261 
L 104.377173 -119.400261 
L 105.455816 -119.400261 
L 106.534458 -119.400261 
L 107.613101 -119.400261 
L 108.691743 -119.400261 
L 109.770386 -119.400261 
L 110.849028 -119.400261 
L 111.927671 -119.400261 
L 113.006313 -119.400261 
L 114.084956 -119.400261 
L 115.163598 -119.400261 
L 116.242241 -119.400261 
L 117.320883 -119.400261 
L 118.399526 -119.400261 
L 119.478168 -119.400261 
L 120.556811 -119.400261 
L 121.635453 -119.400261 
L 122.714096 -119.400261 
L 123.792738 -119.400261 
L 124.871381 -119.400261 
L 125.950023 -119.400261 
L 127.028666 -119.400261 
L 128.107308 -119.400261 
L 129.185951 -119.400261 
L 130.264593 -119.400261 
L 131.343236 -119.400261 
L 132.421878 -119.400261 
L 133.500521 -119.400261 
L 134.579163 -119.400261 
L 135.657806 -119.400261 
L 136.736448 -119.400261 
L 137.815091 -119.400261 
L 138.893733 -119.400261 
L 139.972376 -119.400261 
L 141.051018 -119.400261 
L 142.129661 -119.400261 
L 143.208303 -119.400261 
L 144.286946 -119.400261 
L 145.365588 -119.400261 
L 146.444231 -119.400261 
L 147.522873 -119.400261 
L 148.601516 -119.400261 
L 149.680158 -119.400261 
L 150.758801 -119.400261 
L 151.837443 -119.400261 
L 152.916086 -119.400261 
L 153.994728 -119.400261 
L 155.073371 -119.400261 
L 156.152013 -119.400261 
L 157.230656 -119.400261 
L 158.309298 -119.400261 
L 159.387941 -119.400261 
L 160.466583 -119.400261 
L 161.545226 -119.400261 
L 162.623868 -119.400261 
L 163.702511 -119.400261 
L 164.781153 -119.400261 
L 165.859796 -119.400261 
L 166.938438 -119.400261 
L 168.017081 -119.400261 
L 169.095723 -119.400261 
L 170.174366 -119.400261 
L 171.253008 -119.400261 
L 172.331651 -119.400261 
L 173.410293 -119.400261 
L 174.488936 -119.400261 
L 175.567578 -119.400261 
L 176.646221 -119.400261 
L 177.724863 -119.400261 
L 178.803506 -119.400261 
L 179.882148 -119.400261 
L 180.960791 -119.400261 
L 182.039433 -119.400261 
L 183.118076 -119.400261 
L 184.196718 -119.400261 
L 185.275361 -119.400261 
L 186.354003 -119.400261 
L 187.432646 -119.400261 
L 188.511288 -119.400261 
L 189.589931 -119.400261 
L 190.668573 -119.400261 
L 191.747216 -119.400261 
L 192.825858 -119.400261 
L 193.904501 -119.400261 
L 194.983143 -119.400261 
L 196.061786 -119.400261 
L 197.140428 -119.400261 
L 198.219071 -119.400261 
L 199.297713 -119.400261 
L 200.376356 -119.400261 
L 201.454998 -119.400261 
L 202.533641 -119.400261 
L 203.612283 -119.400261 
L 204.690926 -119.400261 
L 205.769568 -119.400261 
L 206.848211 -119.400261 
L 207.926853 -119.400261 
L 209.005496 -119.400261 
L 210.084138 -119.400261 
L 211.162781 -119.400261 
L 212.241423 -119.400261 
L 213.320066 -119.400261 
L 214.398708 -119.400261 
L 215.477351 -119.400261 
L 216.555993 -119.400261 
L 217.634636 -119.400261 
L 218.713278 -119.400261 
L 219.791921 -119.400261 
L 220.870563 -119.400261 
L 221.949206 -119.400261 
L 223.027848 -119.400261 
L 224.106491 -119.400261 
L 225.185133 -119.400261 
L 226.263776 -119.400261 
L 227.342418 -119.400261 
L 228.42106 -119.400261 
L 229.499703 -119.400261 
L 230.578345 -119.400261 
L 231.656988 -119.400261 
L 232.73563 -119.400261 
L 233.814273 -119.400261 
L 234.892915 -119.400261 
L 235.971558 -119.400261 
L 237.0502 -119.400261 
L 238.128843 -119.400261 
L 239.207485 -119.400261 
L 240.286128 -119.400261 
L 241.36477 -119.400261 
L 242.443413 -119.400261 
L 243.522055 -119.400261 
L 244.600698 -119.400261 
L 245.67934 -119.400261 
L 246.757983 -119.400261 
L 247.836625 -119.400261 
L 248.915268 -119.400261 
L 249.99391 -119.400261 
L 251.072553 -119.400261 
L 252.151195 -119.400261 
L 253.229838 -119.400261 
L 254.30848 -119.400261 
L 255.387123 -119.400261 
L 256.465765 -119.400261 
L 257.544408 -119.400261 
L 258.62305 -119.400261 
L 259.701693 -119.400261 
L 260.780335 -119.400261 
L 261.858978 -119.400261 
L 262.93762 -119.400261 
L 264.016263 -119.400261 
L 265.094905 -119.400261 
L 266.173548 -119.400261 
L 267.25219 -119.400261 
L 268.330833 -119.400261 
L 269.409475 -119.400261 
L 270.488118 -119.400261 
L 271.56676 -119.400261 
L 272.645403 -119.400261 
L 273.724045 -119.400261 
L 274.802688 -119.400261 
L 274.802688 -119.411238 
L 274.802688 -119.411238 
L 273.724045 -119.416192 
L 272.645403 -119.423148 
L 271.56676 -119.432813 
L 270.488118 -119.446101 
L 269.409475 -119.464178 
L 268.330833 -119.488514 
L 267.25219 -119.520933 
L 266.173548 -119.563671 
L 265.094905 -119.619428 
L 264.016263 -119.691415 
L 262.93762 -119.783396 
L 261.858978 -119.899708 
L 260.780335 -120.045268 
L 259.701693 -120.22555 
L 258.62305 -120.446527 
L 257.544408 -120.714586 
L 256.465765 -121.036391 
L 255.387123 -121.418717 
L 254.30848 -121.868231 
L 253.229838 -122.391248 
L 252.151195 -122.993455 
L 251.072553 -123.679615 
L 249.99391 -124.453275 
L 248.915268 -125.316483 
L 247.836625 -126.269545 
L 246.757983 -127.310833 
L 245.67934 -128.436662 
L 244.600698 -129.641258 
L 243.522055 -130.916823 
L 242.443413 -132.253708 
L 241.36477 -133.640681 
L 240.286128 -135.0653 
L 239.207485 -136.514355 
L 238.128843 -137.974378 
L 237.0502 -139.432169 
L 235.971558 -140.875333 
L 234.892915 -142.292779 
L 233.814273 -143.67515 
L 232.73563 -145.015173 
L 231.656988 -146.307885 
L 230.578345 -147.550746 
L 229.499703 -148.743615 
L 228.42106 -149.888599 
L 227.342418 -150.989803 
L 226.263776 -152.052971 
L 225.185133 -153.085079 
L 224.106491 -154.093881 
L 223.027848 -155.08746 
L 221.949206 -156.073796 
L 220.870563 -157.060393 
L 219.791921 -158.053968 
L 218.713278 -159.060226 
L 217.634636 -160.083722 
L 216.555993 -161.1278 
L 215.477351 -162.194616 
L 214.398708 -163.285212 
L 213.320066 -164.399634 
L 212.241423 -165.537071 
L 211.162781 -166.696002 
L 210.084138 -167.874322 
L 209.005496 -169.069454 
L 207.926853 -170.278422 
L 206.848211 -171.497896 
L 205.769568 -172.724205 
L 204.690926 -173.953323 
L 203.612283 -175.180847 
L 202.533641 -176.401968 
L 201.454998 -177.611457 
L 200.376356 -178.803663 
L 199.297713 -179.97255 
L 198.219071 -181.111756 
L 197.140428 -182.2147 
L 196.061786 -183.274712 
L 194.983143 -184.285192 
L 193.904501 -185.239786 
L 192.825858 -186.132568 
L 191.747216 -186.958214 
L 190.668573 -187.712151 
L 189.589931 -188.39069 
L 188.511288 -188.991105 
L 187.432646 -189.511691 
L 186.354003 -189.951767 
L 185.275361 -190.311656 
L 184.196718 -190.592638 
L 183.118076 -190.796878 
L 182.039433 -190.927366 
L 180.960791 -190.987845 
L 179.882148 -190.982764 
L 178.803506 -190.91725 
L 177.724863 -190.79709 
L 176.646221 -190.628743 
L 175.567578 -190.419351 
L 174.488936 -190.17676 
L 173.410293 -189.909516 
L 172.331651 -189.626852 
L 171.253008 -189.338618 
L 170.174366 -189.055176 
L 169.095723 -188.787226 
L 168.017081 -188.545576 
L 166.938438 -188.340851 
L 165.859796 -188.183138 
L 164.781153 -188.081602 
L 163.702511 -188.044066 
L 162.623868 -188.076591 
L 161.545226 -188.183073 
L 160.466583 -188.364893 
L 159.387941 -188.620637 
L 158.309298 -188.945907 
L 157.230656 -189.333257 
L 156.152013 -189.772256 
L 155.073371 -190.249688 
L 153.994728 -190.749891 
L 152.916086 -191.255217 
L 151.837443 -191.746618 
L 150.758801 -192.2043 
L 149.680158 -192.608453 
L 148.601516 -192.939989 
L 147.522873 -193.181278 
L 146.444231 -193.316828 
L 145.365588 -193.333887 
L 144.286946 -193.222924 
L 143.208303 -192.977974 
L 142.129661 -192.596826 
L 141.051018 -192.081042 
L 139.972376 -191.435813 
L 138.893733 -190.669652 
L 137.815091 -189.793963 
L 136.736448 -188.822489 
L 135.657806 -187.77069 
L 134.579163 -186.655087 
L 133.500521 -185.492603 
L 132.421878 -184.299946 
L 131.343236 -183.093067 
L 130.264593 -181.886712 
L 129.185951 -180.694094 
L 128.107308 -179.526679 
L 127.028666 -178.394098 
L 125.950023 -177.304157 
L 124.871381 -176.262935 
L 123.792738 -175.274942 
L 122.714096 -174.3433 
L 121.635453 -173.469941 
L 120.556811 -172.655767 
L 119.478168 -171.90078 
L 118.399526 -171.204148 
L 117.320883 -170.564211 
L 116.242241 -169.978417 
L 115.163598 -169.443205 
L 114.084956 -168.953844 
L 113.006313 -168.504249 
L 111.927671 -168.08679 
L 110.849028 -167.692136 
L 109.770386 -167.309149 
L 108.691743 -166.924854 
L 107.613101 -166.52453 
L 106.534458 -166.091909 
L 105.455816 -165.609526 
L 104.377173 -165.059206 
L 103.298531 -164.422677 
L 102.219888 -163.682303 
L 101.141246 -162.821889 
L 100.062603 -161.827527 
L 98.983961 -160.688419 
L 97.905318 -159.397634 
L 96.826676 -157.952725 
L 95.748033 -156.356176 
L 94.669391 -154.615606 
L 93.590748 -152.743738 
L 92.512106 -150.758082 
L 91.433463 -148.680377 
L 90.354821 -146.535789 
L 89.276178 -144.351933 
L 88.197536 -142.157762 
L 87.118893 -139.982404 
L 86.040251 -137.854013 
L 84.961608 -135.798707 
L 83.882966 -133.839644 
L 82.804323 -131.996307 
L 81.725681 -130.284005 
L 80.647038 -128.713616 
L 79.568396 -127.291569 
L 78.489753 -126.020042 
L 77.411111 -124.897338 
L 76.332468 -123.918402 
L 75.253826 -123.075438 
L 74.175183 -122.358554 
L 73.096541 -121.756432 
L 72.017898 -121.256935 
L 70.939256 -120.847672 
L 69.860613 -120.51646 
L 68.781971 -120.251701 
L 67.703328 -120.042653 
L 66.624686 -119.879612 
L 65.546043 -119.754005 
L 64.467401 -119.658417 
L 63.388758 -119.586561 
L 62.310116 -119.533202 
L 61.231473 -119.494061 
L 60.152831 -119.465699 
z
" style="stroke: #d55e00; stroke-width: 0.9"/>
    </defs>
    <g clip-path="url(#pb95ae40292)">
     <use xlink:href="#mabb6e6ec80" x="0" y="462.364475" style="fill: #d55e00; fill-opacity: 0.7; stroke: #d55e00; stroke-width: 0.9"/>
    </g>
   </g>
   <g id="line2d_50">
    <path d="M 41.265312 342.964214 
L 301.902913 342.964214 
" style="fill: none; stroke: #808080; stroke-linecap: round"/>
   </g>
   <g id="patch_12">
    <path d="M 41.265312 342.964214 
L 41.265312 265.333907 
" style="fill: none; stroke: #cccccc; stroke-linejoin: miter; stroke-linecap: square"/>
   </g>
   <g id="patch_13">
    <path d="M 41.265312 342.964214 
L 301.902913 342.964214 
" style="fill: none; stroke: #cccccc; stroke-linejoin: miter; stroke-linecap: square"/>
   </g>
   <g id="text_18">
    <!-- gen_id = 15 -->
    <g style="fill: #262626" transform="translate(141.370831 259.333907) scale(0.1 -0.1)">
     <use xlink:href="#DejaVuSans-67"/>
     <use xlink:href="#DejaVuSans-65" transform="translate(63.476562 0)"/>
     <use xlink:href="#DejaVuSans-6e" transform="translate(125 0)"/>
     <use xlink:href="#DejaVuSans-5f" transform="translate(188.378906 0)"/>
     <use xlink:href="#DejaVuSans-69" transform="translate(238.378906 0)"/>
     <use xlink:href="#DejaVuSans-64" transform="translate(266.162109 0)"/>
     <use xlink:href="#DejaVuSans-20" transform="translate(329.638672 0)"/>
     <use xlink:href="#DejaVuSans-3d" transform="translate(361.425781 0)"/>
     <use xlink:href="#DejaVuSans-20" transform="translate(445.214844 0)"/>
     <use xlink:href="#DejaVuSans-31" transform="translate(477.001953 0)"/>
     <use xlink:href="#DejaVuSans-35" transform="translate(540.625 0)"/>
    </g>
   </g>
  </g>
  <g id="axes_5">
   <g id="patch_14">
    <path d="M 41.265312 424.476037 
L 301.902913 424.476037 
L 301.902913 346.84573 
L 41.265312 346.84573 
z
" style="fill: #ffffff"/>
   </g>
   <g id="matplotlib.axis_9">
    <g id="xtick_33">
     <g id="line2d_51">
      <path d="M 56.606225 424.476037 
L 56.606225 346.84573 
" clip-path="url(#pc8cc02bfa8)" style="fill: none; stroke-dasharray: 2.96,1.28; stroke-dashoffset: 0; stroke: #cccccc; stroke-opacity: 0.3; stroke-width: 0.8"/>
     </g>
     <g id="text_19">
      <!-- 20 -->
      <g style="fill: #262626" transform="translate(47.109115 439.614631) scale(0.09 -0.09)">
       <defs>
        <path id="DejaVuSans-2212" d="M 678 2272 
L 4684 2272 
L 4684 1741 
L 678 1741 
L 678 2272 
z
" transform="scale(0.015625)"/>
       </defs>
       <use xlink:href="#DejaVuSans-2212"/>
       <use xlink:href="#DejaVuSans-32" transform="translate(83.789062 0)"/>
       <use xlink:href="#DejaVuSans-30" transform="translate(147.412109 0)"/>
      </g>
     </g>
    </g>
    <g id="xtick_34">
     <g id="line2d_52">
      <path d="M 89.45705 424.476037 
L 89.45705 346.84573 
" clip-path="url(#pc8cc02bfa8)" style="fill: none; stroke-dasharray: 2.96,1.28; stroke-dashoffset: 0; stroke: #cccccc; stroke-opacity: 0.3; stroke-width: 0.8"/>
     </g>
     <g id="text_20">
      <!-- 0 -->
      <g style="fill: #262626" transform="translate(86.593925 439.614631) scale(0.09 -0.09)">
       <use xlink:href="#DejaVuSans-30"/>
      </g>
     </g>
    </g>
    <g id="xtick_35">
     <g id="line2d_53">
      <path d="M 122.307875 424.476037 
L 122.307875 346.84573 
" clip-path="url(#pc8cc02bfa8)" style="fill: none; stroke-dasharray: 2.96,1.28; stroke-dashoffset: 0; stroke: #cccccc; stroke-opacity: 0.3; stroke-width: 0.8"/>
     </g>
     <g id="text_21">
      <!-- 20 -->
      <g style="fill: #262626" transform="translate(116.581625 439.614631) scale(0.09 -0.09)">
       <use xlink:href="#DejaVuSans-32"/>
       <use xlink:href="#DejaVuSans-30" transform="translate(63.623047 0)"/>
      </g>
     </g>
    </g>
    <g id="xtick_36">
     <g id="line2d_54">
      <path d="M 155.1587 424.476037 
L 155.1587 346.84573 
" clip-path="url(#pc8cc02bfa8)" style="fill: none; stroke-dasharray: 2.96,1.28; stroke-dashoffset: 0; stroke: #cccccc; stroke-opacity: 0.3; stroke-width: 0.8"/>
     </g>
     <g id="text_22">
      <!-- 40 -->
      <g style="fill: #262626" transform="translate(149.43245 439.614631) scale(0.09 -0.09)">
       <use xlink:href="#DejaVuSans-34"/>
       <use xlink:href="#DejaVuSans-30" transform="translate(63.623047 0)"/>
      </g>
     </g>
    </g>
    <g id="xtick_37">
     <g id="line2d_55">
      <path d="M 188.009525 424.476037 
L 188.009525 346.84573 
" clip-path="url(#pc8cc02bfa8)" style="fill: none; stroke-dasharray: 2.96,1.28; stroke-dashoffset: 0; stroke: #cccccc; stroke-opacity: 0.3; stroke-width: 0.8"/>
     </g>
     <g id="text_23">
      <!-- 60 -->
      <g style="fill: #262626" transform="translate(182.283275 439.614631) scale(0.09 -0.09)">
       <defs>
        <path id="DejaVuSans-36" d="M 2113 2584 
Q 1688 2584 1439 2293 
Q 1191 2003 1191 1497 
Q 1191 994 1439 701 
Q 1688 409 2113 409 
Q 2538 409 2786 701 
Q 3034 994 3034 1497 
Q 3034 2003 2786 2293 
Q 2538 2584 2113 2584 
z
M 3366 4563 
L 3366 3988 
Q 3128 4100 2886 4159 
Q 2644 4219 2406 4219 
Q 1781 4219 1451 3797 
Q 1122 3375 1075 2522 
Q 1259 2794 1537 2939 
Q 1816 3084 2150 3084 
Q 2853 3084 3261 2657 
Q 3669 2231 3669 1497 
Q 3669 778 3244 343 
Q 2819 -91 2113 -91 
Q 1303 -91 875 529 
Q 447 1150 447 2328 
Q 447 3434 972 4092 
Q 1497 4750 2381 4750 
Q 2619 4750 2861 4703 
Q 3103 4656 3366 4563 
z
" transform="scale(0.015625)"/>
       </defs>
       <use xlink:href="#DejaVuSans-36"/>
       <use xlink:href="#DejaVuSans-30" transform="translate(63.623047 0)"/>
      </g>
     </g>
    </g>
    <g id="xtick_38">
     <g id="line2d_56">
      <path d="M 220.86035 424.476037 
L 220.86035 346.84573 
" clip-path="url(#pc8cc02bfa8)" style="fill: none; stroke-dasharray: 2.96,1.28; stroke-dashoffset: 0; stroke: #cccccc; stroke-opacity: 0.3; stroke-width: 0.8"/>
     </g>
     <g id="text_24">
      <!-- 80 -->
      <g style="fill: #262626" transform="translate(215.1341 439.614631) scale(0.09 -0.09)">
       <defs>
        <path id="DejaVuSans-38" d="M 2034 2216 
Q 1584 2216 1326 1975 
Q 1069 1734 1069 1313 
Q 1069 891 1326 650 
Q 1584 409 2034 409 
Q 2484 409 2743 651 
Q 3003 894 3003 1313 
Q 3003 1734 2745 1975 
Q 2488 2216 2034 2216 
z
M 1403 2484 
Q 997 2584 770 2862 
Q 544 3141 544 3541 
Q 544 4100 942 4425 
Q 1341 4750 2034 4750 
Q 2731 4750 3128 4425 
Q 3525 4100 3525 3541 
Q 3525 3141 3298 2862 
Q 3072 2584 2669 2484 
Q 3125 2378 3379 2068 
Q 3634 1759 3634 1313 
Q 3634 634 3220 271 
Q 2806 -91 2034 -91 
Q 1263 -91 848 271 
Q 434 634 434 1313 
Q 434 1759 690 2068 
Q 947 2378 1403 2484 
z
M 1172 3481 
Q 1172 3119 1398 2916 
Q 1625 2713 2034 2713 
Q 2441 2713 2670 2916 
Q 2900 3119 2900 3481 
Q 2900 3844 2670 4047 
Q 2441 4250 2034 4250 
Q 1625 4250 1398 4047 
Q 1172 3844 1172 3481 
z
" transform="scale(0.015625)"/>
       </defs>
       <use xlink:href="#DejaVuSans-38"/>
       <use xlink:href="#DejaVuSans-30" transform="translate(63.623047 0)"/>
      </g>
     </g>
    </g>
    <g id="xtick_39">
     <g id="line2d_57">
      <path d="M 253.711175 424.476037 
L 253.711175 346.84573 
" clip-path="url(#pc8cc02bfa8)" style="fill: none; stroke-dasharray: 2.96,1.28; stroke-dashoffset: 0; stroke: #cccccc; stroke-opacity: 0.3; stroke-width: 0.8"/>
     </g>
     <g id="text_25">
      <!-- 100 -->
      <g style="fill: #262626" transform="translate(245.1218 439.614631) scale(0.09 -0.09)">
       <use xlink:href="#DejaVuSans-31"/>
       <use xlink:href="#DejaVuSans-30" transform="translate(63.623047 0)"/>
       <use xlink:href="#DejaVuSans-30" transform="translate(127.246094 0)"/>
      </g>
     </g>
    </g>
    <g id="xtick_40">
     <g id="line2d_58">
      <path d="M 286.562 424.476037 
L 286.562 346.84573 
" clip-path="url(#pc8cc02bfa8)" style="fill: none; stroke-dasharray: 2.96,1.28; stroke-dashoffset: 0; stroke: #cccccc; stroke-opacity: 0.3; stroke-width: 0.8"/>
     </g>
     <g id="text_26">
      <!-- 120 -->
      <g style="fill: #262626" transform="translate(277.972625 439.614631) scale(0.09 -0.09)">
       <use xlink:href="#DejaVuSans-31"/>
       <use xlink:href="#DejaVuSans-32" transform="translate(63.623047 0)"/>
       <use xlink:href="#DejaVuSans-30" transform="translate(127.246094 0)"/>
      </g>
     </g>
    </g>
    <g id="text_27">
     <!-- Age -->
     <g style="fill: #262626" transform="translate(161.913019 453.084787) scale(0.1 -0.1)">
      <defs>
       <path id="DejaVuSans-41" d="M 2188 4044 
L 1331 1722 
L 3047 1722 
L 2188 4044 
z
M 1831 4666 
L 2547 4666 
L 4325 0 
L 3669 0 
L 3244 1197 
L 1141 1197 
L 716 0 
L 50 0 
L 1831 4666 
z
" transform="scale(0.015625)"/>
      </defs>
      <use xlink:href="#DejaVuSans-41"/>
      <use xlink:href="#DejaVuSans-67" transform="translate(68.408203 0)"/>
      <use xlink:href="#DejaVuSans-65" transform="translate(131.884766 0)"/>
     </g>
    </g>
   </g>
   <g id="matplotlib.axis_10">
    <g id="ytick_15">
     <g id="line2d_59">
      <path d="M 41.265312 424.476037 
L 301.902913 424.476037 
" clip-path="url(#pc8cc02bfa8)" style="fill: none; stroke: #cccccc; stroke-width: 0.8; stroke-linecap: round"/>
     </g>
     <g id="text_28">
      <!-- 0.000 -->
      <g style="fill: #262626" transform="translate(7.2 427.895334) scale(0.09 -0.09)">
       <use xlink:href="#DejaVuSans-30"/>
       <use xlink:href="#DejaVuSans-2e" transform="translate(63.623047 0)"/>
       <use xlink:href="#DejaVuSans-30" transform="translate(95.410156 0)"/>
       <use xlink:href="#DejaVuSans-30" transform="translate(159.033203 0)"/>
       <use xlink:href="#DejaVuSans-30" transform="translate(222.65625 0)"/>
      </g>
     </g>
    </g>
    <g id="ytick_16">
     <g id="line2d_60">
      <path d="M 41.265312 394.99606 
L 301.902913 394.99606 
" clip-path="url(#pc8cc02bfa8)" style="fill: none; stroke: #cccccc; stroke-width: 0.8; stroke-linecap: round"/>
     </g>
     <g id="text_29">
      <!-- 0.005 -->
      <g style="fill: #262626" transform="translate(7.2 398.415357) scale(0.09 -0.09)">
       <use xlink:href="#DejaVuSans-30"/>
       <use xlink:href="#DejaVuSans-2e" transform="translate(63.623047 0)"/>
       <use xlink:href="#DejaVuSans-30" transform="translate(95.410156 0)"/>
       <use xlink:href="#DejaVuSans-30" transform="translate(159.033203 0)"/>
       <use xlink:href="#DejaVuSans-35" transform="translate(222.65625 0)"/>
      </g>
     </g>
    </g>
    <g id="ytick_17">
     <g id="line2d_61">
      <path d="M 41.265312 365.516083 
L 301.902913 365.516083 
" clip-path="url(#pc8cc02bfa8)" style="fill: none; stroke: #cccccc; stroke-width: 0.8; stroke-linecap: round"/>
     </g>
     <g id="text_30">
      <!-- 0.010 -->
      <g style="fill: #262626" transform="translate(7.2 368.93538) scale(0.09 -0.09)">
       <use xlink:href="#DejaVuSans-30"/>
       <use xlink:href="#DejaVuSans-2e" transform="translate(63.623047 0)"/>
       <use xlink:href="#DejaVuSans-30" transform="translate(95.410156 0)"/>
       <use xlink:href="#DejaVuSans-31" transform="translate(159.033203 0)"/>
       <use xlink:href="#DejaVuSans-30" transform="translate(222.65625 0)"/>
      </g>
     </g>
    </g>
   </g>
   <g id="FillBetweenPolyCollection_5">
    <defs>
     <path id="m94745324c1" d="M 57.267076 -37.986584 
L 57.267076 -37.888438 
L 58.415991 -37.888438 
L 59.564906 -37.888438 
L 60.71382 -37.888438 
L 61.862735 -37.888438 
L 63.01165 -37.888438 
L 64.160565 -37.888438 
L 65.30948 -37.888438 
L 66.458395 -37.888438 
L 67.60731 -37.888438 
L 68.756225 -37.888438 
L 69.90514 -37.888438 
L 71.054055 -37.888438 
L 72.20297 -37.888438 
L 73.351885 -37.888438 
L 74.5008 -37.888438 
L 75.649715 -37.888438 
L 76.79863 -37.888438 
L 77.947545 -37.888438 
L 79.09646 -37.888438 
L 80.245375 -37.888438 
L 81.394289 -37.888438 
L 82.543204 -37.888438 
L 83.692119 -37.888438 
L 84.841034 -37.888438 
L 85.989949 -37.888438 
L 87.138864 -37.888438 
L 88.287779 -37.888438 
L 89.436694 -37.888438 
L 90.585609 -37.888438 
L 91.734524 -37.888438 
L 92.883439 -37.888438 
L 94.032354 -37.888438 
L 95.181269 -37.888438 
L 96.330184 -37.888438 
L 97.479099 -37.888438 
L 98.628014 -37.888438 
L 99.776929 -37.888438 
L 100.925844 -37.888438 
L 102.074758 -37.888438 
L 103.223673 -37.888438 
L 104.372588 -37.888438 
L 105.521503 -37.888438 
L 106.670418 -37.888438 
L 107.819333 -37.888438 
L 108.968248 -37.888438 
L 110.117163 -37.888438 
L 111.266078 -37.888438 
L 112.414993 -37.888438 
L 113.563908 -37.888438 
L 114.712823 -37.888438 
L 115.861738 -37.888438 
L 117.010653 -37.888438 
L 118.159568 -37.888438 
L 119.308483 -37.888438 
L 120.457398 -37.888438 
L 121.606312 -37.888438 
L 122.755227 -37.888438 
L 123.904142 -37.888438 
L 125.053057 -37.888438 
L 126.201972 -37.888438 
L 127.350887 -37.888438 
L 128.499802 -37.888438 
L 129.648717 -37.888438 
L 130.797632 -37.888438 
L 131.946547 -37.888438 
L 133.095462 -37.888438 
L 134.244377 -37.888438 
L 135.393292 -37.888438 
L 136.542207 -37.888438 
L 137.691122 -37.888438 
L 138.840037 -37.888438 
L 139.988952 -37.888438 
L 141.137867 -37.888438 
L 142.286781 -37.888438 
L 143.435696 -37.888438 
L 144.584611 -37.888438 
L 145.733526 -37.888438 
L 146.882441 -37.888438 
L 148.031356 -37.888438 
L 149.180271 -37.888438 
L 150.329186 -37.888438 
L 151.478101 -37.888438 
L 152.627016 -37.888438 
L 153.775931 -37.888438 
L 154.924846 -37.888438 
L 156.073761 -37.888438 
L 157.222676 -37.888438 
L 158.371591 -37.888438 
L 159.520506 -37.888438 
L 160.669421 -37.888438 
L 161.818335 -37.888438 
L 162.96725 -37.888438 
L 164.116165 -37.888438 
L 165.26508 -37.888438 
L 166.413995 -37.888438 
L 167.56291 -37.888438 
L 168.711825 -37.888438 
L 169.86074 -37.888438 
L 171.009655 -37.888438 
L 172.15857 -37.888438 
L 173.307485 -37.888438 
L 174.4564 -37.888438 
L 175.605315 -37.888438 
L 176.75423 -37.888438 
L 177.903145 -37.888438 
L 179.05206 -37.888438 
L 180.200975 -37.888438 
L 181.34989 -37.888438 
L 182.498804 -37.888438 
L 183.647719 -37.888438 
L 184.796634 -37.888438 
L 185.945549 -37.888438 
L 187.094464 -37.888438 
L 188.243379 -37.888438 
L 189.392294 -37.888438 
L 190.541209 -37.888438 
L 191.690124 -37.888438 
L 192.839039 -37.888438 
L 193.987954 -37.888438 
L 195.136869 -37.888438 
L 196.285784 -37.888438 
L 197.434699 -37.888438 
L 198.583614 -37.888438 
L 199.732529 -37.888438 
L 200.881444 -37.888438 
L 202.030358 -37.888438 
L 203.179273 -37.888438 
L 204.328188 -37.888438 
L 205.477103 -37.888438 
L 206.626018 -37.888438 
L 207.774933 -37.888438 
L 208.923848 -37.888438 
L 210.072763 -37.888438 
L 211.221678 -37.888438 
L 212.370593 -37.888438 
L 213.519508 -37.888438 
L 214.668423 -37.888438 
L 215.817338 -37.888438 
L 216.966253 -37.888438 
L 218.115168 -37.888438 
L 219.264083 -37.888438 
L 220.412998 -37.888438 
L 221.561913 -37.888438 
L 222.710827 -37.888438 
L 223.859742 -37.888438 
L 225.008657 -37.888438 
L 226.157572 -37.888438 
L 227.306487 -37.888438 
L 228.455402 -37.888438 
L 229.604317 -37.888438 
L 230.753232 -37.888438 
L 231.902147 -37.888438 
L 233.051062 -37.888438 
L 234.199977 -37.888438 
L 235.348892 -37.888438 
L 236.497807 -37.888438 
L 237.646722 -37.888438 
L 238.795637 -37.888438 
L 239.944552 -37.888438 
L 241.093467 -37.888438 
L 242.242381 -37.888438 
L 243.391296 -37.888438 
L 244.540211 -37.888438 
L 245.689126 -37.888438 
L 246.838041 -37.888438 
L 247.986956 -37.888438 
L 249.135871 -37.888438 
L 250.284786 -37.888438 
L 251.433701 -37.888438 
L 252.582616 -37.888438 
L 253.731531 -37.888438 
L 254.880446 -37.888438 
L 256.029361 -37.888438 
L 257.178276 -37.888438 
L 258.327191 -37.888438 
L 259.476106 -37.888438 
L 260.625021 -37.888438 
L 261.773936 -37.888438 
L 262.92285 -37.888438 
L 264.071765 -37.888438 
L 265.22068 -37.888438 
L 266.369595 -37.888438 
L 267.51851 -37.888438 
L 268.667425 -37.888438 
L 269.81634 -37.888438 
L 270.965255 -37.888438 
L 272.11417 -37.888438 
L 273.263085 -37.888438 
L 274.412 -37.888438 
L 275.560915 -37.888438 
L 276.70983 -37.888438 
L 277.858745 -37.888438 
L 279.00766 -37.888438 
L 280.156575 -37.888438 
L 281.30549 -37.888438 
L 282.454405 -37.888438 
L 283.603319 -37.888438 
L 284.752234 -37.888438 
L 285.901149 -37.888438 
L 285.901149 -37.905895 
L 285.901149 -37.905895 
L 284.752234 -37.913197 
L 283.603319 -37.923209 
L 282.454405 -37.936796 
L 281.30549 -37.955044 
L 280.156575 -37.979301 
L 279.00766 -38.011221 
L 277.858745 -38.052802 
L 276.70983 -38.10643 
L 275.560915 -38.174912 
L 274.412 -38.261506 
L 273.263085 -38.369945 
L 272.11417 -38.504437 
L 270.965255 -38.669657 
L 269.81634 -38.870723 
L 268.667425 -39.11314 
L 267.51851 -39.402729 
L 266.369595 -39.745531 
L 265.22068 -40.147684 
L 264.071765 -40.615283 
L 262.92285 -41.154213 
L 261.773936 -41.769976 
L 260.625021 -42.467504 
L 259.476106 -43.250965 
L 258.327191 -44.123585 
L 257.178276 -45.087464 
L 256.029361 -46.143434 
L 254.880446 -47.290926 
L 253.731531 -48.527883 
L 252.582616 -49.850711 
L 251.433701 -51.254276 
L 250.284786 -52.731947 
L 249.135871 -54.27569 
L 247.986956 -55.876204 
L 246.838041 -57.523101 
L 245.689126 -59.205124 
L 244.540211 -60.910387 
L 243.391296 -62.626641 
L 242.242381 -64.341543 
L 241.093467 -66.042935 
L 239.944552 -67.719112 
L 238.795637 -69.359072 
L 237.646722 -70.952755 
L 236.497807 -72.491255 
L 235.348892 -73.966998 
L 234.199977 -75.373903 
L 233.051062 -76.707496 
L 231.902147 -77.965 
L 230.753232 -79.145384 
L 229.604317 -80.249369 
L 228.455402 -81.279393 
L 227.306487 -82.239536 
L 226.157572 -83.135386 
L 225.008657 -83.973872 
L 223.859742 -84.76304 
L 222.710827 -85.511796 
L 221.561913 -86.229619 
L 220.412998 -86.926249 
L 219.264083 -87.611367 
L 218.115168 -88.294278 
L 216.966253 -88.983624 
L 215.817338 -89.687111 
L 214.668423 -90.411293 
L 213.519508 -91.161394 
L 212.370593 -91.941189 
L 211.221678 -92.752935 
L 210.072763 -93.597342 
L 208.923848 -94.473601 
L 207.774933 -95.379433 
L 206.626018 -96.311173 
L 205.477103 -97.26387 
L 204.328188 -98.231408 
L 203.179273 -99.206637 
L 202.030358 -100.181522 
L 200.881444 -101.147306 
L 199.732529 -102.094693 
L 198.583614 -103.014054 
L 197.434699 -103.895663 
L 196.285784 -104.729948 
L 195.136869 -105.507775 
L 193.987954 -106.220739 
L 192.839039 -106.861461 
L 191.690124 -107.423885 
L 190.541209 -107.903538 
L 189.392294 -108.297762 
L 188.243379 -108.605887 
L 187.094464 -108.829338 
L 185.945549 -108.971659 
L 184.796634 -109.038467 
L 183.647719 -109.037306 
L 182.498804 -108.977435 
L 181.34989 -108.869542 
L 180.200975 -108.725401 
L 179.05206 -108.557491 
L 177.903145 -108.378589 
L 176.75423 -108.201362 
L 175.605315 -108.037964 
L 174.4564 -107.899663 
L 173.307485 -107.796496 
L 172.15857 -107.736973 
L 171.009655 -107.727823 
L 169.86074 -107.773782 
L 168.711825 -107.877444 
L 167.56291 -108.039142 
L 166.413995 -108.256892 
L 165.26508 -108.526381 
L 164.116165 -108.84101 
L 162.96725 -109.192007 
L 161.818335 -109.568598 
L 160.669421 -109.958267 
L 159.520506 -110.347081 
L 158.371591 -110.720112 
L 157.222676 -111.061921 
L 156.073761 -111.357109 
L 154.924846 -111.59091 
L 153.775931 -111.749796 
L 152.627016 -111.822064 
L 151.478101 -111.798369 
L 150.329186 -111.672162 
L 149.180271 -111.440006 
L 148.031356 -111.101745 
L 146.882441 -110.6605 
L 145.733526 -110.122505 
L 144.584611 -109.496774 
L 143.435696 -108.794642 
L 142.286781 -108.029186 
L 141.137867 -107.214603 
L 139.988952 -106.365552 
L 138.840037 -105.49654 
L 137.691122 -104.621371 
L 136.542207 -103.752709 
L 135.393292 -102.901764 
L 134.244377 -102.078127 
L 133.095462 -101.289736 
L 131.946547 -100.542975 
L 130.797632 -99.842859 
L 129.648717 -99.193286 
L 128.499802 -98.597309 
L 127.350887 -98.057395 
L 126.201972 -97.575614 
L 125.053057 -97.153759 
L 123.904142 -96.79335 
L 122.755227 -96.495523 
L 121.606312 -96.260811 
L 120.457398 -96.088827 
L 119.308483 -95.977881 
L 118.159568 -95.924558 
L 117.010653 -95.923305 
L 115.861738 -95.96606 
L 114.712823 -96.04198 
L 113.563908 -96.137282 
L 112.414993 -96.23524 
L 111.266078 -96.31636 
L 110.117163 -96.35873 
L 108.968248 -96.338546 
L 107.819333 -96.230804 
L 106.670418 -96.010126 
L 105.521503 -95.651686 
L 104.372588 -95.1322 
L 103.223673 -94.430914 
L 102.074758 -93.530562 
L 100.925844 -92.418228 
L 99.776929 -91.086067 
L 98.628014 -89.531848 
L 97.479099 -87.759275 
L 96.330184 -85.778078 
L 95.181269 -83.603847 
L 94.032354 -81.257624 
L 92.883439 -78.76526 
L 91.734524 -76.15657 
L 90.585609 -73.464329 
L 89.436694 -70.723152 
L 88.287779 -67.968316 
L 87.138864 -65.234589 
L 85.989949 -62.555107 
L 84.841034 -59.960375 
L 83.692119 -57.477413 
L 82.543204 -55.129097 
L 81.394289 -52.933711 
L 80.245375 -50.904719 
L 79.09646 -49.050746 
L 77.947545 -47.375768 
L 76.79863 -45.879459 
L 75.649715 -44.557685 
L 74.5008 -43.40309 
L 73.351885 -42.405739 
L 72.20297 -41.553781 
L 71.054055 -40.834095 
L 69.90514 -40.232888 
L 68.756225 -39.736226 
L 67.60731 -39.330483 
L 66.458395 -39.002697 
L 65.30948 -38.740833 
L 64.160565 -38.53396 
L 63.01165 -38.37235 
L 61.862735 -38.247508 
L 60.71382 -38.152145 
L 59.564906 -38.080114 
L 58.415991 -38.026315 
L 57.267076 -37.986584 
z
" style="stroke: #cc78bc; stroke-width: 0.9"/>
    </defs>
    <g clip-path="url(#pc8cc02bfa8)">
     <use xlink:href="#m94745324c1" x="0" y="462.364475" style="fill: #cc78bc; fill-opacity: 0.7; stroke: #cc78bc; stroke-width: 0.9"/>
    </g>
   </g>
   <g id="line2d_62">
    <path d="M 41.265312 424.476037 
L 301.902913 424.476037 
" style="fill: none; stroke: #808080; stroke-linecap: round"/>
   </g>
   <g id="patch_15">
    <path d="M 41.265312 424.476037 
L 41.265312 346.84573 
" style="fill: none; stroke: #cccccc; stroke-linejoin: miter; stroke-linecap: square"/>
   </g>
   <g id="patch_16">
    <path d="M 41.265312 424.476037 
L 301.902913 424.476037 
" style="fill: none; stroke: #cccccc; stroke-linejoin: miter; stroke-linecap: square"/>
   </g>
   <g id="text_31">
    <!-- gen_id = 16 -->
    <g style="fill: #262626" transform="translate(141.370831 340.84573) scale(0.1 -0.1)">
     <use xlink:href="#DejaVuSans-67"/>
     <use xlink:href="#DejaVuSans-65" transform="translate(63.476562 0)"/>
     <use xlink:href="#DejaVuSans-6e" transform="translate(125 0)"/>
     <use xlink:href="#DejaVuSans-5f" transform="translate(188.378906 0)"/>
     <use xlink:href="#DejaVuSans-69" transform="translate(238.378906 0)"/>
     <use xlink:href="#DejaVuSans-64" transform="translate(266.162109 0)"/>
     <use xlink:href="#DejaVuSans-20" transform="translate(329.638672 0)"/>
     <use xlink:href="#DejaVuSans-3d" transform="translate(361.425781 0)"/>
     <use xlink:href="#DejaVuSans-20" transform="translate(445.214844 0)"/>
     <use xlink:href="#DejaVuSans-31" transform="translate(477.001953 0)"/>
     <use xlink:href="#DejaVuSans-36" transform="translate(540.625 0)"/>
    </g>
   </g>
  </g>
 </g>
 <defs>
  <clipPath id="p7094658f5e">
   <rect x="41.265312" y="20.798437" width="260.6376" height="77.630308"/>
  </clipPath>
  <clipPath id="p015604aba6">
   <rect x="41.265312" y="102.310261" width="260.6376" height="77.630308"/>
  </clipPath>
  <clipPath id="p93ea73786a">
   <rect x="41.265312" y="183.822084" width="260.6376" height="77.630308"/>
  </clipPath>
  <clipPath id="pb95ae40292">
   <rect x="41.265312" y="265.333907" width="260.6376" height="77.630308"/>
  </clipPath>
  <clipPath id="pc8cc02bfa8">
   <rect x="41.265312" y="346.84573" width="260.6376" height="77.630308"/>
  </clipPath>
 </defs>
</svg>
